<svg xmlns="http://www.w3.org/2000/svg" width="15.719" height="10.37" viewBox="0 0 15.719 10.37">
  <defs>
    <style>
      .cls-1 {
        fill: #1c2940;
        fill-rule: evenodd;
      }
    </style>
  </defs>
  <path id="arrow2_1" data-name="arrow2 1" class="cls-1" d="M694.076,7674.54l4.867-4.78a0.738,0.738,0,0,1,.868.28,0.722,0.722,0,0,1,.29.86l-3.325,3.26h12.142a0.81,0.81,0,1,1,0,1.62H697l3.106,3.05a0.706,0.706,0,0,1-.289.85,0.763,0.763,0,0,1-.869.29l-4.867-4.78a0.33,0.33,0,0,1-.047-0.32A0.323,0.323,0,0,1,694.076,7674.54Z" transform="translate(-694.031 -7669.66)"/>
</svg>
