<?xml version="1.0" encoding="utf-8"?>
<!-- Generator: Adobe Illustrator 23.0.5, SVG Export Plug-In . SVG Version: 6.00 Build 0)  -->
<svg version="1.1" id="Capa_1" xmlns="http://www.w3.org/2000/svg" xmlns:xlink="http://www.w3.org/1999/xlink" x="0px" y="0px"
	 viewBox="0 0 512 512" style="enable-background:new 0 0 512 512;" xml:space="preserve">
<style type="text/css">
	.st0{fill:#20BCEE;}
	.st1{fill:#0E243F;}
</style>
<path class="st0" d="M355.5,266.3c1.6,0,23.8-3.3,23.8-3.3l15.9-31.8l22.2,10.9l3.8,19.7l26.8,14.2l4.6,20.9l-31.4,11.3l-5.9,25.5
	l-22.2,6.3l-15.1-22.6l-5.4-11.3l-23-5.9l-5.4-21.8L355.5,266.3z"/>
<path class="st0" d="M126.2,21.3l65.9,82.6c0,0-77.6,113.3-79.3,121.7c-1.7,8.4-35.7,88.2-35.7,88.2s-66.4-35.1-65.3-60.8
	s8.2-80.4,8.2-80.4S86,67,89.9,60.3C93.8,53.7,126.2,21.3,126.2,21.3z"/>
<g>
	<g>
		<g>
			<g>
				<g>
					<path class="st1" d="M241.6,483.5c-4.2,0.1-8,2.9-9.2,6.9c-1.3,4.1,0.2,8.7,3.7,11.2c3.4,2.4,8,2.5,11.4,0.1
						c3.9-2.6,5.4-7.8,3.6-12.1C249.5,485.8,245.7,483.4,241.6,483.5L241.6,483.5z"/>
					<path class="st1" d="M512,285.8c0-62.1-50.5-112.6-112.6-112.6c-14.9,0-29.2,2.9-42.3,8.2C309.5,107.2,250,38.3,249.4,37.6
						c-1.9-2.2-4.7-3.5-7.6-3.5s-5.7,1.3-7.6,3.5c-2.2,2.5-19.5,22.6-42.3,52c-29.3-42.2-59.5-77.1-59.8-77.5
						c-1.9-2.2-4.7-3.4-7.6-3.4s-5.7,1.3-7.6,3.4c-0.3,0.3-29.3,33.9-58,74.9C19.9,143,0,185.8,0,214.1C0,237.9,6.7,261,19.5,281
						C31,299.1,47,313.8,65.8,323.9c0,1.2-0.1,2.4-0.1,3.5c0,39.2,12.6,76.2,36.4,107.2c23.1,30,55.7,52.1,92,62.3
						c0.9,0.3,1.8,0.4,2.7,0.4c4.4,0,8.4-2.9,9.6-7.3c1.5-5.3-1.6-10.8-6.9-12.3c-67-18.8-113.8-80.6-113.8-150.2
						c0-35.4,28.1-94.2,81.2-170.2c30.4-43.5,61.1-81.2,75-97.7c17.2,20.6,60.7,74.1,97.4,131c-31.5,20-52.5,55.2-52.5,95.2
						c0,56.1,41.2,102.7,94.9,111.2c-19.5,38.9-55.1,68.6-97.1,80.5c-5.3,1.5-8.4,7-6.9,12.3c1.2,4.4,5.3,7.3,9.6,7.3
						c0.9,0,1.8-0.1,2.7-0.4c25.4-7.2,49.3-20.3,69.1-37.9c18.8-16.7,34-37.6,44.1-60.5C463.5,396.4,512,346.7,512,285.8L512,285.8z
						 M68.8,302.6c-30.4-19-48.8-52-48.8-88.5c0-45.2,69.6-138,104.6-180c11.3,13.6,33.6,41.3,54.6,72.2
						C136.4,163,82.2,243.4,68.8,302.6z M399.4,378.5c-51.1,0-92.6-41.6-92.6-92.6s41.6-92.6,92.6-92.6s92.6,41.6,92.6,92.6
						S450.4,378.5,399.4,378.5z"/>
				</g>
				<path class="st1" d="M433,255.7h-3.5v-3.5c0-16.6-13.5-30.2-30.2-30.2s-30.2,13.5-30.2,30.2v3.5h-3.5
					c-16.6,0-30.2,13.5-30.2,30.2s13.5,30.2,30.2,30.2h3.5v3.5c0,16.6,13.5,30.2,30.2,30.2s30.2-13.5,30.2-30.2V316h3.5
					c16.6,0,30.2-13.5,30.2-30.2S449.7,255.7,433,255.7z M433,296h-13.5c-5.5,0-10,4.5-10,10v13.5c0,5.6-4.6,10.2-10.2,10.2
					c-5.6,0-10.2-4.6-10.2-10.2V306c0-5.5-4.5-10-10-10h-13.5c-5.6,0-10.2-4.6-10.2-10.2s4.6-10.2,10.2-10.2h13.5
					c5.5,0,10-4.5,10-10v-13.5c0-5.6,4.6-10.2,10.2-10.2c5.6,0,10.2,4.6,10.2,10.2v13.5c0,5.5,4.5,10,10,10H433
					c5.6,0,10.2,4.6,10.2,10.2S438.6,296,433,296z"/>
			</g>
		</g>
	</g>
</g>
</svg>
