<?xml version="1.0" encoding="utf-8"?>
<!-- Generator: Adobe Illustrator 23.0.5, SVG Export Plug-In . SVG Version: 6.00 Build 0)  -->
<svg version="1.1" id="Слой_1" xmlns="http://www.w3.org/2000/svg" xmlns:xlink="http://www.w3.org/1999/xlink" x="0px" y="0px"
	 viewBox="0 0 512 512" style="enable-background:new 0 0 512 512;" xml:space="preserve">
<style type="text/css">
	.st0{fill:#20BCEE;}
	.st1{fill:#0E243F;}
</style>
<polygon class="st0" points="272,345.6 322.4,343.3 327.2,358.8 295.4,392.3 295.4,454.3 254.2,455.5 255.4,381.4 "/>
<polygon class="st0" points="164.7,344.7 203.5,347 171.4,390.5 206.9,453.8 160.8,455.5 120.1,394.1 120.1,374 143,362.3 
	160.8,343.3 "/>
<g id="Outline">
	<path class="st1" d="M495.6,253.5l-7.6-22.8V208c0-2.1-0.8-4.2-2.3-5.7L472,188.7c-0.5-15.9-7-31.1-18.3-42.3
		c-3.1-3.1-8.2-3.1-11.3,0l-9.7,9.7c-4.8,4.8-8.7,10.3-11.7,16.3l-2.3,4.6L343.2,192H112c-26.5,0-48-21.5-48-48s21.5-48,48-48h64
		c13.3,0,24-10.7,24-24s-10.7-24-24-24h-64c-53,0-96,43.1-96,96.1c0,36.5,20.7,69.8,53.5,86c-3.6,8.2-5.5,17-5.5,25.9v75.7
		l-44.4,29.6c-2.2,1.5-3.6,4-3.6,6.7v88c0,4.4,3.6,8,8,8h40c4.4,0,8-3.6,8-8v-58l40-11.4v5.4c0,1.5,0.4,3,1.2,4.2l40,64
		c1.5,2.3,4,3.8,6.8,3.8h48c4.4,0,8-3.6,8-8c0-1.5-0.4-3-1.2-4.2l-36.9-59.1l33.9-40.7h48.4l-11.6,29c-0.4,0.9-0.6,2-0.6,3v72
		c0,4.4,3.6,8,8,8h40c4.4,0,8-3.6,8-8v-61.1l20.9-25.1l60.4,90.6c1.5,2.2,4,3.6,6.7,3.6h48c4.4,0,8-3.6,8-8c0-1.3-0.3-2.6-1-3.8
		L392,350v-44l33.9-25.5l36.5,7.3c2.6,0.5,5.3-0.3,7.2-2.2l24-24C495.8,259.5,496.5,256.3,495.6,253.5z M55.4,200.6
		c-31.2-31.2-31.2-81.9,0-113.1C70.4,72.4,90.8,64,112,64h64c4.4,0,8,3.6,8,8s-3.6,8-8,8h-64c-35.3,0-64,28.7-64,64
		c0,27,17,51.1,42.4,60.2c-4.7,3.4-9,7.5-12.6,12.1C69.5,212.4,61.9,207.1,55.4,200.6z M161.9,386.9c-2.2,2.7-2.5,6.4-0.6,9.4
		l32.3,51.8h-29.1L128,389.7v-8.5c14.7-6.4,27.4-16.4,37.1-29.2h25.8L161.9,386.9z M289.9,386.9c-1.2,1.4-1.9,3.3-1.9,5.1v56h-24
		v-62.5l13.4-33.5h39l0.8,2.1L289.9,386.9z M461.4,271.3l-35.8-7.2c-2.2-0.4-4.5,0.1-6.4,1.4l-40,30c-2,1.5-3.2,3.9-3.2,6.4v50
		c0,1.3,0.3,2.6,1,3.8l49.6,92.2h-30.3l-61.1-91.7l-23.7-63.1l-15,5.6l13.9,37.2H174.9c6-12.5,9.1-26.1,9.1-40h-16
		c-0.1,34.3-22.8,64.4-55.7,73.9l-50.5,14.4c-3.4,1-5.8,4.1-5.8,7.7v56H32v-75.7l44.4-29.6c2.1-1.4,3.4-3.8,3.5-6.3h0V256
		c0-26.5,21.5-48,48-48h216c0.5,0,1.1-0.1,1.6-0.2l80-16c2.4-0.5,4.5-2.1,5.6-4.3l4-8.1c2.2-4.5,5.2-8.6,8.7-12.1l3.6-3.6
		c5.5,7.8,8.5,17.2,8.5,26.8v1.4c0,2.1,0.8,4.2,2.3,5.7l13.7,13.7V232c0,0.9,0.1,1.7,0.4,2.5l6.4,19.3L461.4,271.3z"/>
	<rect x="440" y="216" class="st1" width="16" height="16"/>
</g>
</svg>
