<?xml version="1.0" encoding="utf-8"?>
<!-- Generator: Adobe Illustrator 23.0.5, SVG Export Plug-In . SVG Version: 6.00 Build 0)  -->
<svg version="1.1" id="Слой_1" xmlns="http://www.w3.org/2000/svg" xmlns:xlink="http://www.w3.org/1999/xlink" x="0px" y="0px"
	 viewBox="0 0 115.37 123.94" style="enable-background:new 0 0 115.37 123.94;" xml:space="preserve">
<style type="text/css">
	.st0{fill:#19BBEE;}
	.st1{clip-path:url(#SVGID_2_);fill:#0D243F;}
	.st2{clip-path:url(#SVGID_2_);fill:#FFFFFF;}
</style>
<polygon class="st0" points="35.4,32.76 74.07,32.76 74.07,42.04 82.28,42.04 82.28,84.59 35.4,87.87 "/>
<g>
	<defs>
		<rect id="SVGID_1_" y="0" width="115.37" height="123.94"/>
	</defs>
	<clipPath id="SVGID_2_">
		<use xlink:href="#SVGID_1_"  style="overflow:visible;"/>
	</clipPath>
	<path class="st1" d="M10.93,84.81c0-2.95,1.77-5.61,4.5-6.73c2.72-1.13,5.86-0.51,7.94,1.58c2.09,2.08,2.71,5.22,1.58,7.94
		c-1.13,2.73-3.79,4.5-6.74,4.5C14.2,92.1,10.94,88.84,10.93,84.81 M28.26,84.81c0-4.06-2.44-7.72-6.2-9.27
		c-3.75-1.56-8.07-0.7-10.94,2.17C8.25,80.59,7.4,84.9,8.95,88.65c1.55,3.75,5.21,6.2,9.27,6.2C23.76,94.84,28.25,90.35,28.26,84.81
		"/>
	<path class="st1" d="M18.22,78.02c-0.9,0-1.77,0.18-2.6,0.52c-2.55,1.05-4.19,3.52-4.19,6.27c0,3.74,3.05,6.79,6.79,6.79
		c2.76,0,5.22-1.64,6.27-4.19c1.05-2.55,0.48-5.45-1.47-7.4C21.74,78.73,20.03,78.02,18.22,78.02 M18.22,92.61
		c-4.29,0-7.79-3.5-7.79-7.79c0-3.17,1.89-5.99,4.81-7.2c0.95-0.39,1.95-0.59,2.98-0.59c2.08,0,4.04,0.81,5.51,2.28
		c2.24,2.24,2.9,5.57,1.69,8.49C24.21,90.72,21.39,92.61,18.22,92.61 M18.22,75.28c-2.55,0-4.94,0.99-6.74,2.79
		c-2.74,2.74-3.55,6.82-2.07,10.39c1.48,3.58,4.94,5.89,8.81,5.89c5.25,0,9.53-4.28,9.53-9.53c0-3.87-2.31-7.33-5.89-8.81
		C20.71,75.52,19.48,75.28,18.22,75.28 M18.22,95.35L18.22,95.35c-4.28,0-8.1-2.55-9.74-6.5c-1.64-3.95-0.74-8.46,2.28-11.49
		c1.99-1.99,4.64-3.09,7.45-3.09c1.39,0,2.75,0.27,4.03,0.8c3.95,1.64,6.51,5.46,6.51,9.73C28.75,90.62,24.03,95.35,18.22,95.35"/>
	<path class="st2" d="M49.35,60.59c0,4.6,3.73,8.34,8.33,8.34s8.33-3.73,8.33-8.34c0-4.6-3.73-8.33-8.33-8.33
		S49.35,55.99,49.35,60.59"/>
	<path class="st1" d="M57.39,52.86c-4.26,0-7.73,3.47-7.73,7.73c0,4.26,3.47,7.73,7.73,7.73c4.26,0,7.73-3.47,7.73-7.73
		C65.12,56.32,61.65,52.86,57.39,52.86 M57.39,72.33c-6.48,0-11.74-5.27-11.74-11.74c0-6.47,5.27-11.74,11.74-11.74
		s11.74,5.26,11.74,11.74C69.13,67.06,63.86,72.33,57.39,72.33"/>
	<path class="st2" d="M52.93,55.82c0,2.52-2.04,4.56-4.57,4.56c-2.52,0-4.56-2.04-4.56-4.56c0-2.52,2.04-4.56,4.56-4.56
		C50.89,51.26,52.93,53.3,52.93,55.82"/>
	<path class="st1" d="M48.37,53.26c-1.41,0-2.56,1.15-2.56,2.56c0,1.41,1.15,2.56,2.56,2.56c1.41,0,2.56-1.15,2.56-2.56
		C50.93,54.41,49.78,53.26,48.37,53.26 M48.37,62.39c-3.62,0-6.57-2.95-6.57-6.57c0-3.62,2.95-6.57,6.57-6.57
		c3.62,0,6.57,2.95,6.57,6.57C54.94,59.44,51.99,62.39,48.37,62.39"/>
	<path class="st2" d="M82.65,6.57c0,2.52-2.04,4.56-4.57,4.56c-2.52,0-4.56-2.04-4.56-4.56c0-2.52,2.04-4.56,4.56-4.56
		C80.6,2.01,82.65,4.05,82.65,6.57"/>
	<path class="st1" d="M78.08,4.01c-1.41,0-2.56,1.15-2.56,2.56c0,1.41,1.15,2.56,2.56,2.56c1.41,0,2.56-1.15,2.56-2.56
		C80.64,5.16,79.49,4.01,78.08,4.01 M78.08,13.14c-3.62,0-6.57-2.95-6.57-6.57c0-3.62,2.95-6.57,6.57-6.57
		c3.62,0,6.57,2.95,6.57,6.57C84.65,10.19,81.7,13.14,78.08,13.14"/>
	<path class="st1" d="M97.48,99.09H29.51c1.37-1.11,2.64-2.48,3.85-4.15c0.68-0.93,1.52-2.77,1.57-2.86
		c0.35-0.81,0.63-1.65,0.86-2.51h39.4v-9.34h9.34V40.49h-9.34v-9.23H36.44l0-9.66h61.03V99.09z M18.22,99.09
		c-7.86-0.01-14.26-6.41-14.27-14.28c0-7.87,6.4-14.27,14.27-14.27c7.87,0,14.27,6.4,14.27,14.27
		C32.39,92.7,26.11,98.98,18.22,99.09 M3.95,19.63c0-7.87,6.4-14.27,14.27-14.27c7.87,0,14.27,6.4,14.27,14.27v53.86
		c-3.44-4.35-8.64-6.9-14.27-6.9c-5.63,0-10.84,2.55-14.27,6.9V19.63z M80.52,44.5v31.72h-9.34v9.34H36.41
		c0.01-0.25,0.03-0.5,0.03-0.74l0-49.54h34.74v9.23H80.52z M115.37,21.7v-4.01h-13.89v-0.03H36.33c-1.02-9.39-9.24-16.6-18.82-16.23
		C7.69,1.8,0,9.8,0,19.63v65.19c0.01,10.03,8.18,18.21,18.22,18.22h80.22v0.11h16.93v-4.01h-13.89v-9.56h13.89v-4.01h-13.89v-9.56
		h13.89v-4.01h-13.89v-9.56h13.89v-4.01h-13.89v-9.56h13.89v-4.01h-13.89v-9.56h13.89v-4.01h-13.89V21.7H115.37z"/>
	<polygon class="st2" points="50.18,98.41 78.46,70.13 85.92,84.72 64.78,105.87 	"/>
	<path class="st1" d="M53.55,97.88l10.84,5.54l19.08-19.08L77.93,73.5L53.55,97.88z M65.16,108.32l-18.34-9.38l32.17-32.18
		l9.38,18.35L65.16,108.32z"/>
	
		<rect x="63.63" y="93.96" transform="matrix(0.7071 -0.7071 0.7071 0.7071 -46.2913 84.0665)" class="st2" width="29.39" height="7.91"/>
	<path class="st1" d="M67.98,105.51l2.76,2.76l17.94-17.95l-2.75-2.76L67.98,105.51z M70.73,113.94l-8.43-8.43l23.62-23.62
		l8.43,8.43L70.73,113.94z"/>
	
		<rect x="88.91" y="94.79" transform="matrix(0.712 -0.7022 0.7022 0.712 -51.7567 95.8042)" class="st1" width="4.01" height="32.41"/>
</g>
</svg>
