<?xml version="1.0" encoding="utf-8"?>
<!-- Generator: Adobe Illustrator 23.0.5, SVG Export Plug-In . SVG Version: 6.00 Build 0)  -->
<svg version="1.1" id="Outline" xmlns="http://www.w3.org/2000/svg" xmlns:xlink="http://www.w3.org/1999/xlink" x="0px" y="0px"
	 viewBox="0 0 512 512" style="enable-background:new 0 0 512 512;" xml:space="preserve">
<style type="text/css">
	.st0{fill:#20BCEE;}
	.st1{fill:#0E243F;}
</style>
<polygon class="st0" points="250.7,295.9 420.3,295.9 439.9,339.4 432,390.9 408,428.7 400.3,440 391.3,456 277.5,456 271.3,440 
	263.5,428.7 241.9,399.1 237.3,350 237.3,319.3 "/>
<circle class="st1" cx="112" cy="456" r="8"/>
<circle class="st1" cx="128" cy="440" r="8"/>
<circle class="st1" cx="144" cy="456" r="8"/>
<path class="st1" d="M211.6,279.5c-2-2.1-4-4.1-6.1-6c-0.5-0.6-0.9-1.1-1.5-1.6l0,0c-1.5-1.5-3.1-2.7-5-3.7
	c-14.6-8.1-36.9,0.5-53,9.1c-21.1,11.3-44.7,29.4-66.5,51.2c-21.7,21.7-39.8,45.2-51.1,66.3c-8.6,16-17.2,38.2-9.3,52.9
	c0.1,0.1,0.1,0.2,0.2,0.3c1.3,2.5,3.2,4.7,5.4,6.4c22,24.2,52.6,39,85.3,41.3c3.1,0.2,6.3,0.3,9.4,0.3c41.5-0.1,80.3-20.2,104.3-54
	c5,6.2,10.5,12,16.4,17.3V472c0,13.2,10.8,24,24,24h144c13.2,0,24-10.8,24-24v-12.7c53.2-47.6,63.5-126.9,24.3-186.5
	c31.4-31.1,31.6-81.8,0.5-113.1c-19-19.2-46.4-27.5-72.8-22.1v-59c9.6-3.4,16-12.5,16-22.6V40c0-13.2-10.8-24-24-24h-80
	c-13.2,0-24,10.8-24,24v16c0,10.2,6.4,19.2,16,22.6v137.6C255.8,227.6,228.8,250,211.6,279.5z M90.8,339.7
	c47.5-47.5,88.9-64,100.5-57.6c0.5,0.3,0.9,0.6,1.3,1c0.2,0.2,0.4,0.4,0.5,0.6c4.9,6.5-1.1,23.9-7.7,36.7
	c-10.4,20.2-28,43.1-49.3,64.5c-47,47-90.6,65-101.2,57.1c-0.2-0.2-0.4-0.3-0.6-0.5c-0.4-0.4-0.8-0.9-1-1.4c0-0.1-0.1-0.1-0.1-0.2
	C27.2,428,43.8,386.8,90.8,339.7z M190.8,454.1c-39.5,32.9-96.3,34.6-137.8,4.3c27.4-6,64.2-31.9,94.4-62.1s56.1-67.1,62.1-94.4
	C244.4,349.6,236.1,416.2,190.8,454.1L190.8,454.1z M276.9,427.7c-14.1-11-24.8-25.7-31-42.5c2.4-17.9,1-36.1-4-53.5
	c0.3-0.6,0.6-1.2,0.7-1.9c2.1-9.1,5.6-17.8,10.3-25.8h166.3c23.9,41.5,13.6,94.2-24.1,123.7c-1.9,1.5-3.1,3.8-3.1,6.3v6
	c0,4.4-3.6,8-8,8h-96c-4.4,0-8-3.6-8-8v-6C280,431.5,278.9,429.2,276.9,427.7L276.9,427.7z M418.8,449.6c-1.8,1.5-2.8,3.8-2.8,6.1
	V472c0,4.4-3.6,8-8,8H264c-4.4,0-8-3.6-8-8v-16.3c0-2.3-1-4.6-2.8-6.1c-7.7-6.6-14.7-14-20.6-22.2c2.9-5.6,5.5-11.5,7.5-17.5
	c6.4,10.6,14.5,20,23.9,28v2.2c0,13.2,10.8,24,24,24h96c13.2,0,24-10.8,24-24v-2.2c43.1-36.2,52.7-98.7,22.4-146.1
	c-1.5-2.3-4-3.7-6.7-3.7H248.3c-2.7,0-5.3,1.4-6.7,3.7c-3.5,5.4-6.5,11.2-9,17.1c-2.9-5.6-6.3-11.1-10.1-16.2
	c15.8-30.3,43.1-52.9,75.8-63c3.4-1,5.7-4.1,5.6-7.6V80h64v142c0,3.5,2.3,6.6,5.6,7.6c25.8,8,48.5,24,64.8,45.6
	C479,329.4,470.4,405.8,418.8,449.6z M423.5,237.7c-12-9.2-25.3-16.5-39.5-21.5v-27.9c4.9-2.8,10.4-4.3,16-4.3c17.7,0,32,14.3,32,32
	C432,224.1,429,231.8,423.5,237.7z M400,152c35.3,0,64,28.6,64,64c0,16.3-6.2,32-17.4,43.9c-3.4-4.1-7.1-8-10.9-11.7
	c8-8.8,12.4-20.3,12.3-32.1c0-26.5-21.5-48-48.1-48c-5.4,0-10.8,0.9-15.9,2.7V154C389.2,152.7,394.6,152,400,152z M288,40
	c0-4.4,3.6-8,8-8h80c4.4,0,8,3.6,8,8v16c0,4.4-3.6,8-8,8h-80c-4.4,0-8-3.6-8-8V40z"/>
</svg>
