<?xml version="1.0" encoding="utf-8"?>
<!-- Generator: Adobe Illustrator 23.0.5, SVG Export Plug-In . SVG Version: 6.00 Build 0)  -->
<svg version="1.1" id="Capa_1" xmlns="http://www.w3.org/2000/svg" xmlns:xlink="http://www.w3.org/1999/xlink" x="0px" y="0px"
	 viewBox="0 0 512 512" style="enable-background:new 0 0 512 512;" xml:space="preserve">
<style type="text/css">
	.st0{fill:#20BCEE;}
	.st1{fill:#0E243F;}
</style>
<rect x="120.6" y="386" class="st0" width="268.7" height="108.9"/>
<rect x="60" y="77" class="st0" width="383.7" height="65"/>
<g>
	<g>
		<path class="st1" d="M452.3,68.3H59.7c-4.7,0-8.5,3.8-8.5,8.5v68.3c0,4.7,3.8,8.5,8.5,8.5h392.5c4.7,0,8.5-3.8,8.5-8.5V76.8
			C460.8,72.1,457,68.3,452.3,68.3z M443.7,136.5L443.7,136.5H68.3V85.3h375.5L443.7,136.5L443.7,136.5z"/>
	</g>
</g>
<g>
	<g>
		<path class="st1" d="M417.6,73.8l-21.9-58.5C392.2,6.2,383.3,0,373.5,0H138.4c-9.8,0-18.7,6.2-22.1,15.3L94.4,73.8
			c-1,2.6-0.6,5.6,1,7.9c1.6,2.3,4.2,3.7,7,3.7h307.2c2.8,0,5.4-1.4,7-3.7C418.2,79.4,418.6,76.4,417.6,73.8z M114.7,68.3l17.6-47
			c1-2.5,3.4-4.3,6.1-4.3h235.1c2.7,0,5.2,1.7,6.1,4.3l17.6,47H114.7z"/>
	</g>
</g>
<g>
	<g>
		<path class="st1" d="M436.2,236.7c-3.7-4-8.7-6.3-13.9-6.3H89.7c-5.2,0-10.2,2.2-13.9,6.3c-4.4,4.7-6.6,11.4-6.1,18.2L79,372
			c0.9,11.7,9.5,20.5,20,20.5h314.1c10.5,0,19-8.8,20-20.5l9.2-117.1C442.8,248.1,440.5,241.4,436.2,236.7z M425.2,253.6L416,370.7
			c-0.2,2.9-1.9,4.8-3,4.8H98.9c-1.1,0-2.7-1.9-3-4.8l-9.2-117.1c-0.2-2.5,0.7-4.4,1.6-5.3c0.3-0.3,0.8-0.8,1.4-0.8h332.5
			c0.6,0,1.1,0.5,1.4,0.8C424.5,249.2,425.4,251.1,425.2,253.6z"/>
	</g>
</g>
<g>
	<g>
		<path class="st1" d="M424.4,139.3c-1.6-1.8-3.9-2.8-6.3-2.8H93.9c-2.4,0-4.7,1-6.3,2.8c-1.6,1.8-2.4,4.2-2.2,6.6l8.9,93.9
			c0.4,4.4,4.1,7.7,8.5,7.7h306.4c4.4,0,8.1-3.3,8.5-7.7l8.9-93.9C426.9,143.5,426.1,141.1,424.4,139.3z M401.4,230.4H110.6
			l-7.3-76.8h305.5L401.4,230.4z"/>
	</g>
</g>
<g>
	<g>
		<path class="st1" d="M287.8,275.4c-8.3-8.3-19.9-12.1-32.7-10.6c-12.1,1.3-23.9,7.2-33.3,16.6c-9.4,9.4-15.3,21.2-16.6,33.3
			c-1.4,12.8,2.3,24.4,10.6,32.7c7.1,7.1,16.8,10.9,27.5,10.9c1.7,0,3.5-0.1,5.2-0.3c12.1-1.3,23.9-7.2,33.3-16.6
			c9.4-9.4,15.3-21.2,16.6-33.3C299.8,295.3,296,283.7,287.8,275.4z M281.4,306.3c-0.9,8.3-5.1,16.5-11.7,23.1
			c-6.6,6.6-14.9,10.8-23.1,11.7c-7.6,0.8-14.2-1.2-18.8-5.7c-4.5-4.5-6.6-11.2-5.7-18.8c0.9-8.3,5.1-16.5,11.7-23.1
			c6.6-6.6,14.9-10.8,23.1-11.7c1.1-0.1,2.2-0.2,3.3-0.2c6.2,0,11.6,2,15.5,5.9C280.2,292.1,282.3,298.7,281.4,306.3z"/>
	</g>
</g>
<g>
	<g>
		<path class="st1" d="M262,301.2c-3.3-3.3-8.7-3.3-12.1,0l-34.3,34.3c-3.3,3.3-3.3,8.7,0,12.1c1.7,1.7,3.8,2.5,6,2.5s4.4-0.8,6-2.5
			l34.3-34.3C265.4,309.9,265.4,304.5,262,301.2z"/>
	</g>
</g>
<g>
	<g>
		<path class="st1" d="M401.7,378.3c-1.6-1.8-3.9-2.8-6.3-2.8H116.6c-2.4,0-4.7,1-6.3,2.8c-1.6,1.8-2.4,4.2-2.2,6.6l10.1,105.8
			c1.2,12.2,11.3,21.4,23.5,21.4h228.6c12.2,0,22.3-9.2,23.5-21.4l10.1-105.8C404.1,382.4,403.3,380,401.7,378.3z M376.8,489
			c-0.3,3.4-3.1,5.9-6.5,5.9H141.7c-3.4,0-6.2-2.5-6.5-5.9l-9.2-96.5h260L376.8,489z"/>
	</g>
</g>
</svg>
