<?xml version="1.0" encoding="utf-8"?>
<!-- Generator: Adobe Illustrator 23.0.5, SVG Export Plug-In . SVG Version: 6.00 Build 0)  -->
<svg version="1.1" id="Layer_1" xmlns="http://www.w3.org/2000/svg" xmlns:xlink="http://www.w3.org/1999/xlink" x="0px" y="0px"
	 viewBox="0 0 512 512" style="enable-background:new 0 0 512 512;" xml:space="preserve">
<style type="text/css">
	.st0{fill:#20BCEE;}
	.st1{fill:#0E243F;}
</style>
<polygon class="st0" points="311.5,113.8 350.1,50.6 390.8,123.4 386.6,159.1 357.6,173.9 327.7,168.2 306.2,135.7 "/>
<path class="st1" d="M139.5,336.8c3.3,0,6-2.7,6-6V325c0-3.3-2.7-6-6-6s-6,2.7-6,6v5.8C133.5,334.1,136.1,336.8,139.5,336.8z"/>
<path class="st1" d="M139.5,444.2c3.3,0,6-2.7,6-6l0,0v-88.5c0-3.3-2.7-6-6-6s-6,2.7-6,6v88.5C133.5,441.6,136.1,444.2,139.5,444.2
	L139.5,444.2z"/>
<path class="st1" d="M355.3,44.5c-1.7-2.9-5.4-3.8-8.2-2.1c-0.9,0.5-1.6,1.3-2.1,2.1l-36.7,62.6c-13.5,23.1-5.7,52.8,17.4,66.4
	c19,11.1,43.2,8,58.8-7.5c15.6-15.6,18.7-39.8,7.6-58.8L355.3,44.5z M375.9,157.5c-14.2,14.3-37.3,14.3-51.6,0.1
	c-11.8-11.8-14.1-30-5.7-44.3l31.5-53.8l31.5,53.8C390,127.5,387.7,145.7,375.9,157.5L375.9,157.5z"/>
<path class="st1" d="M374.5,125.1c-3.2-0.7-6.4,1.4-7.1,4.7c0,0,0,0,0,0c-0.7,3.4-2.4,6.5-4.8,9c-1.9,1.9-4.2,3.3-6.7,4.2
	c-3.1,1.1-4.8,4.5-3.7,7.6c1.1,3.1,4.5,4.8,7.6,3.7c9.9-3.4,17.3-11.9,19.4-22.2C379.9,129,377.8,125.8,374.5,125.1
	C374.5,125.1,374.5,125.1,374.5,125.1L374.5,125.1z"/>
<path class="st1" d="M350.1,10.9c-32.3,0-62.7,15.5-81.5,41.8H84.7c-12.9,0-23.3,10.4-23.3,23.3c0,12.9,10.4,23.3,23.3,23.3h6.2
	v154.4h-6.2c-12.9,0-23.3,10.4-23.3,23.3c0,12.9,10.4,23.3,23.3,23.3c0,0,0,0,0,0h6.2v154.4h-6.2c-12.9,0-23.3,10.4-23.3,23.3
	c0,12.8,10.4,23.3,23.3,23.3h282.1c12.9,0,23.3-10.4,23.3-23.3c0-12.8-10.4-23.3-23.3-23.3h-6.2V300.2h6.2
	c12.9,0,23.3-10.4,23.3-23.3s-10.4-23.3-23.3-23.3h-6.2v-42.3c55.2-5.8,95.2-55.3,89.4-110.4C444.7,49.7,401.5,10.9,350.1,10.9
	L350.1,10.9z M84.7,87.2c-6.2,0-11.3-5-11.3-11.3c0-6.2,5-11.3,11.3-11.3c0,0,0,0,0,0h176.5c-3.8,7.1-6.6,14.7-8.6,22.6H84.7z
	 M366.8,466.6c6.2,0,11.3,5,11.3,11.3s-5,11.3-11.3,11.3c0,0,0,0,0,0H84.7c-6.2,0-11.3-5.1-11.3-11.3c0-3,1.2-5.9,3.3-8
	c2.1-2.1,5-3.3,8-3.3h25.7c3.3,0,6-2.7,6-6s-2.7-6-6-6h-7.5V300.2h245.8v154.4h-214c-3.3,0-6,2.7-6,6s2.7,6,6,6H366.8z M366.8,265.6
	c6.2,0,11.3,5,11.3,11.3c0,6.2-5,11.3-11.3,11.3c0,0,0,0,0,0H84.7c-6.2,0-11.3-5.1-11.3-11.3c0-6.2,5.1-11.3,11.3-11.3h199
	c3.3,0,6-2.7,6-6s-2.7-6-6-6H102.8V99.2h147.6c-6.7,55.1,32.6,105.2,87.7,111.9c3.5,0.4,7,0.7,10.6,0.7v41.8h-37c-3.3,0-6,2.7-6,6
	s2.7,6,6,6H366.8z M354.3,199.7c-1.5,0.1-2.9,0.1-4.2,0.1c-48.9,0-88.5-39.7-88.5-88.6c0-5.7,0.5-11.3,1.6-16.9
	c2.2-11.5,6.7-22.4,13.2-32.1c27.1-40.7,82-51.7,122.7-24.6s51.7,82,24.6,122.7C408.2,183.8,382.4,198.4,354.3,199.7L354.3,199.7z"
	/>
</svg>
