<?xml version="1.0" encoding="utf-8"?>
<!-- Generator: Adobe Illustrator 23.0.5, SVG Export Plug-In . SVG Version: 6.00 Build 0)  -->
<svg version="1.1" id="Слой_1" xmlns="http://www.w3.org/2000/svg" xmlns:xlink="http://www.w3.org/1999/xlink" x="0px" y="0px"
	 viewBox="0 0 149.59 104" style="enable-background:new 0 0 149.59 104;" xml:space="preserve">
<style type="text/css">
	.st0{clip-path:url(#SVGID_2_);fill:#0D243F;}
	.st1{clip-path:url(#SVGID_2_);fill:#FFFFFF;}
	.st2{clip-path:url(#SVGID_2_);fill:#19BBEE;}
</style>
<g>
	<defs>
		<rect id="SVGID_1_" width="149.59" height="104"/>
	</defs>
	<clipPath id="SVGID_2_">
		<use xlink:href="#SVGID_1_"  style="overflow:visible;"/>
	</clipPath>
	<path class="st0" d="M126.08,99.92h-0.67l-4.79-11.17h3.86L126.08,99.92z M122.03,67.09c0,1.28-1.04,2.32-2.32,2.32H73.95
		c-1.28,0-2.32-1.04-2.32-2.32v-6.54c0-1.28,1.04-2.32,2.32-2.32h34.87c1.13,0,2.04-0.91,2.04-2.04c0-1.13-0.91-2.04-2.04-2.04
		H73.95c-1.28,0-2.32-1.04-2.32-2.32V27.87c0-2.48,2.02-4.5,4.5-4.5h45.76c2.48,0,4.5,2.02,4.5,4.5v14.49
		c-0.29,0.56-0.5,1.16-0.62,1.8l-2.07,11.4c-1.09-0.87-2.48-1.4-3.99-1.4h-2.18c-1.13,0-2.04,0.91-2.04,2.04
		c0,1.13,0.91,2.04,2.04,2.04h2.18c1.28,0,2.32,1.04,2.32,2.32L122.03,67.09L122.03,67.09z M65.24,69.41H19.47
		c-1.28,0-2.32-1.04-2.32-2.32v-6.54c0-1.28,1.04-2.32,2.32-2.32h45.76c1.28,0,2.32,1.04,2.32,2.32v6.54
		C67.55,68.37,66.51,69.41,65.24,69.41 M17.29,23.37h45.76c2.48,0,4.5,2.02,4.5,4.5v23.97c0,1.28-1.04,2.32-2.32,2.32H19.47
		c-1.51,0-2.89,0.53-3.99,1.4l-2.07-11.4c-0.12-0.64-0.33-1.24-0.62-1.8V27.87C12.79,25.39,14.81,23.37,17.29,23.37 M13.77,99.92
		h-0.66l1.6-11.17h3.86L13.77,99.92z M138.09,40.28c-0.8-0.88-1.94-1.38-3.12-1.38h-2.9c-0.55,0-1.08,0.07-1.6,0.2V27.87
		c0-4.73-3.85-8.58-8.58-8.58H76.13c-2.62,0-4.96,1.18-6.54,3.03c-1.57-1.85-3.92-3.03-6.54-3.03H17.29c-4.73,0-8.58,3.85-8.58,8.58
		v11.24c-0.51-0.13-1.05-0.2-1.6-0.2h-2.9c-1.19,0-2.33,0.5-3.12,1.38c-0.8,0.88-1.19,2.06-1.08,3.24l3.76,39.43
		c0.32,3.3,3.05,5.79,6.37,5.79h0.44l-1.85,12.93c-0.09,0.59,0.09,1.18,0.48,1.62s0.95,0.7,1.54,0.7h4.36
		c0.81,0,1.55-0.49,1.87-1.24L23,88.74h3.01c1.13,0,2.04-0.91,2.04-2.04c0-1.13-0.91-2.04-2.04-2.04H10.14c-1.2,0-2.19-0.9-2.31-2.1
		L4.08,43.13c0-0.01-0.01-0.06,0.04-0.11c0.04-0.05,0.09-0.05,0.11-0.05h2.9c1.12,0,2.08,0.8,2.28,1.91l3.68,20.21v2
		c0,3.53,2.87,6.4,6.4,6.4h45.76c1.68,0,3.21-0.66,4.36-1.72c1.14,1.07,2.68,1.72,4.36,1.72h45.76c3.53,0,6.4-2.87,6.4-6.4v-2
		l3.67-20.21c0.2-1.11,1.16-1.91,2.28-1.91h2.9c0.02,0,0.06,0,0.1,0.05c0.04,0.05,0.04,0.09,0.04,0.11l-3.76,39.43
		c-0.11,1.2-1.11,2.1-2.31,2.1H34.73c-1.13,0-2.04,0.91-2.04,2.04c0,1.13,0.92,2.04,2.04,2.04h81.46l6.01,14.02
		c0.32,0.75,1.06,1.24,1.87,1.24h4.36c0.59,0,1.15-0.26,1.54-0.7c0.38-0.45,0.56-1.04,0.48-1.62l-1.85-12.93h0.44
		c3.32,0,6.05-2.49,6.37-5.79l3.76-39.43C139.28,42.34,138.89,41.16,138.09,40.28"/>
	<path class="st0" d="M30.39,38.62c1.12,0,2.04-0.91,2.04-2.04c0-1.13-0.91-2.04-2.04-2.04h-0.02c-1.13,0-2.03,0.91-2.03,2.04
		C28.34,37.71,29.27,38.62,30.39,38.62"/>
	<path class="st0" d="M50,38.62c1.13,0,2.04-0.91,2.04-2.04c0-1.13-0.91-2.04-2.04-2.04h-0.02c-1.13,0-2.03,0.91-2.03,2.04
		C47.95,37.71,48.88,38.62,50,38.62"/>
	<path class="st0" d="M92.55,36.42c1.01,0,1.83,0.82,1.83,1.83c0,1.01-0.82,1.83-1.83,1.83c-1.01,0-1.83-0.82-1.83-1.83
		C90.72,37.24,91.54,36.42,92.55,36.42 M92.55,43.74c3.02,0,5.48-2.46,5.48-5.48c0-3.02-2.46-5.49-5.48-5.49
		c-3.02,0-5.49,2.46-5.49,5.49C87.06,41.28,89.52,43.74,92.55,43.74"/>
	<path class="st0" d="M90.87,3.66c1.01,0,1.83,0.82,1.83,1.83c0,1.01-0.82,1.83-1.83,1.83c-1.01,0-1.83-0.82-1.83-1.83
		C89.05,4.48,89.87,3.66,90.87,3.66 M90.87,10.97c3.03,0,5.49-2.46,5.49-5.48C96.36,2.46,93.9,0,90.87,0
		c-3.02,0-5.49,2.46-5.49,5.49C85.39,8.51,87.85,10.97,90.87,10.97"/>
	<path class="st0" d="M77.74,47.39c0.48,0,0.95-0.2,1.29-0.54c0.34-0.34,0.54-0.81,0.54-1.29c0-0.48-0.19-0.95-0.54-1.29
		c-0.34-0.34-0.81-0.54-1.29-0.54c-0.48,0-0.95,0.19-1.29,0.54c-0.34,0.34-0.54,0.81-0.54,1.29c0,0.48,0.19,0.95,0.54,1.29
		C76.79,47.2,77.26,47.39,77.74,47.39"/>
	<path class="st0" d="M106.76,49.22c0.48,0,0.95-0.19,1.29-0.54c0.34-0.34,0.54-0.81,0.54-1.29c0-0.48-0.19-0.95-0.54-1.29
		c-0.34-0.34-0.81-0.54-1.29-0.54c-0.48,0-0.95,0.19-1.29,0.54c-0.34,0.34-0.54,0.81-0.54,1.29c0,0.48,0.19,0.95,0.54,1.29
		C105.81,49.03,106.28,49.22,106.76,49.22"/>
	<polygon class="st1" points="136.56,44.83 104.93,12.86 93.64,22.29 126.15,55.34 	"/>
	<path class="st2" d="M104.93,13.75c0,0,5.97-12.44,13.2-5.2C125.37,15.78,139,29.41,139,29.41s6.49,6.09,1.1,12.74
		c-5.39,6.65-3.93,2.7-3.93,2.7L104.93,13.75z"/>
	<path class="st0" d="M137,42.22l-29.7-29.7l1.82-1.82c2.13-2.14,5.61-2.14,7.74,0l21.96,21.96c2.13,2.13,2.13,5.6,0,7.74L137,42.22
		z M126.89,52.33l-5.06-5.06l6.95-6.95l5.06,5.06L126.89,52.33z M118.68,44.11l-5.05-5.05l6.95-6.95l5.06,5.06L118.68,44.11z
		 M110.46,35.9l-5.06-5.06l6.95-6.95l5.06,5.05L110.46,35.9z M102.25,27.68l-5.06-5.06l6.95-6.95l5.05,5.06L102.25,27.68z
		 M141.98,29.5l-19.09-19.09l0.19-0.2c2.33-2.33,6.12-2.33,8.45,0l14.24,14.24c0.87,0.87,2.29,0.87,3.16,0
		c0.87-0.87,0.87-2.29,0-3.16L134.7,7.05c-1.23-1.23-2.65-2.23-4.24-2.57c-7.35-1.59-10.86,2.66-10.86,2.66
		c-3.9-3.47-9.9-3.33-13.63,0.4L90.87,22.63l34.44,34.44c0.87,0.87,2.29,0.87,3.16,0l13.51-13.51
		C145.86,39.68,145.86,33.37,141.98,29.5"/>
</g>
</svg>
