<?xml version="1.0" encoding="utf-8"?>
<!-- Generator: Adobe Illustrator 23.0.5, SVG Export Plug-In . SVG Version: 6.00 Build 0)  -->
<svg version="1.1" id="Capa_1" xmlns="http://www.w3.org/2000/svg" xmlns:xlink="http://www.w3.org/1999/xlink" x="0px" y="0px"
	 viewBox="0 0 512 512" style="enable-background:new 0 0 512 512;" xml:space="preserve">
<style type="text/css">
	.st0{fill:#20BCEE;}
	.st1{fill:#0E243F;}
</style>
<polygon class="st0" points="389.4,94.7 392.7,459.5 368.5,503.2 412.8,497 443.5,459.5 473.5,442.1 482.3,411.1 482.3,309.8 
	437.1,259.6 434.6,124 413.7,102.2 "/>
<polygon class="st0" points="139,493.2 120.6,463 120.6,65.4 77.9,113.9 74.6,187.6 38.5,230.3 31.9,422 53.5,452 74.6,459.5 
	94.7,497 139,507.4 "/>
<g>
	<path class="st1" d="M472.4,287.3l-28.9-34V142.5c0-26.4-19.6-48.3-45-52v-38C398.5,23.6,374.9,0,346,0H166
		c-28.9,0-52.5,23.6-52.5,52.5v6.9L88.3,84.6c-12.7,12.7-19.8,29.7-19.8,47.7v45.9l-28.9,34C29.2,224.5,23.5,240,23.5,256v158.5
		c0,26.6,19.8,48.6,45.5,52c3.4,25.6,25.4,45.5,52,45.5h270c26.6,0,48.6-19.8,52-45.5c25.6-3.4,45.5-25.4,45.5-52V331
		C488.5,315,482.8,299.5,472.4,287.3z M38.5,414.5V256c0-12.4,4.4-24.5,12.5-34l17.5-20.6v249.8C51.4,447.8,38.5,432.6,38.5,414.5z
		 M121,497c-20.7,0-37.5-16.8-37.5-37.5V132.4c0-14,5.5-27.2,15.4-37.1l14.6-14.6v378.9c0,14.7,6.1,28,15.8,37.5H121z M166,497
		c-18.3,0-33.6-13.2-36.9-30.6c25.1-3.9,44.4-25.7,44.4-51.9c0-4.1-3.4-7.5-7.5-7.5s-7.5,3.4-7.5,7.5c0,18.1-12.9,33.3-30,36.7V52.5
		c0-18.1,12.9-33.3,30-36.7v368.7c0,4.1,3.4,7.5,7.5,7.5s7.5-3.4,7.5-7.5V15h120v163.2l-28.9,34c-10.4,12.2-16.1,27.7-16.1,43.7
		v203.5c0,14.7,6.1,28,15.8,37.5H166z M301,497c-20.7,0-37.5-16.8-37.5-37.5V256c0-12.4,4.4-24.5,12.5-34l30.7-36.1
		c1.2-1.4,1.8-3.1,1.8-4.9V15H346c20.7,0,37.5,16.8,37.5,37.5v407c0,20.7-16.8,37.5-37.5,37.5H301z M428.5,459.5
		c0,20.7-16.8,37.5-37.5,37.5h-8.3c9.7-9.5,15.8-22.8,15.8-37.5V105.8c17.1,3.5,30,18.6,30,36.7V459.5z M473.5,414.5
		c0,18.1-12.9,33.3-30,36.7V276.4L461,297c8.1,9.5,12.5,21.5,12.5,34V414.5z"/>
	<circle class="st1" cx="331" cy="459.5" r="7.5"/>
	<circle class="st1" cx="361" cy="429.5" r="7.5"/>
	<circle class="st1" cx="196" cy="52.5" r="7.5"/>
</g>
</svg>
