<?xml version="1.0" encoding="utf-8"?>
<!-- Generator: Adobe Illustrator 23.0.5, SVG Export Plug-In . SVG Version: 6.00 Build 0)  -->
<svg version="1.1" id="Layer_1" xmlns="http://www.w3.org/2000/svg" xmlns:xlink="http://www.w3.org/1999/xlink" x="0px" y="0px"
	 viewBox="0 0 512 512" style="enable-background:new 0 0 512 512;" xml:space="preserve">
<style type="text/css">
	.st0{fill:#20BCEE;}
	.st1{fill:#0E243F;}
</style>
<polygon class="st0" points="102.2,9.3 391.6,12.6 391.6,185.9 92.8,243.7 92.8,16 "/>
<g>
	<g>
		<path class="st1" d="M447.4,336.1l-36-152.8c-1-4.4-4.8-7.4-9.1-7.7v-52.3V24.1c0-13.3-10.8-24.1-24.1-24.1H106.3
			C93,0,82.2,10.8,82.2,24.1v99.2v107.9l-1.1,0.2c-4.8,0.8-8.3,5-8.3,9.9v77.4v135.2l-7.1,24c-2.6,8.6-1.3,17.3,3.5,23.7
			c3.5,4.7,10.6,10.4,23.9,10.4h298.2c13.4,0,20.4-5.6,23.9-10.4c4.8-6.4,6-15,3.5-23.7l-7.1-24V331.4c7.2,3.5,13.5,8,18.6,13.7
			c1.9,2.2,4.7,3.3,7.4,3.3c1.6,0,3.2-0.4,4.6-1.1C446.3,345.2,448.4,340.6,447.4,336.1L447.4,336.1z M102.2,133.4h80v80.5l-80,14
			V133.4z M382.2,178.9l-80,14v-59.5h80V178.9z M282.2,113.4h-80V20h80V113.4z M202.2,133.4h80v63l-80,14V133.4z M382.2,24.1v89.2
			h-80V20h75.9C380.4,20,382.2,21.9,382.2,24.1z M106.3,20h75.9v93.4h-80V24.1C102.2,21.9,104,20,106.3,20z M399.2,489.7
			c-1.1,1.5-4,2.3-7.9,2.3H93.1c-3.9,0-6.8-0.9-7.9-2.3c-0.9-1.3-1.1-3.6-0.3-6l5.4-18.2h303.9l5.4,18.2
			C400.3,486.1,400.2,488.4,399.2,489.7z M391.6,445.4H92.8V333.9c9,2.9,19.1,4.7,30,5.6v65.9c0,5.5,4.5,10,10,10h64.5
			c5.5,0,10-4.5,10-10s-4.5-10-10-10h-54.5v-55.1c30.1-0.1,64.7-4.8,100.4-9.7c33.7-4.6,68-9.4,98.5-10v74.9h-54.5
			c-5.5,0-10,4.5-10,10s4.5,10,10,10h64.5c5.5,0,10-4.5,10-10v-84.7c10.7,0.5,20.8,1.7,30,3.8L391.6,445.4L391.6,445.4z M405,307.5
			c-0.2-0.1-0.4-0.1-0.6-0.2c-15.6-4.7-33.4-6.6-52.5-6.8c-0.1,0-0.1,0-0.2,0c0,0-0.1,0-0.1,0c-34.4-0.3-73,5-111.1,10.2
			c-56.8,7.8-115.4,15.9-147.6,1.9v-62.8L394,197.2c0,0,0.1,0,0.1,0l27.6,116.9C416.4,311.4,410.8,309.3,405,307.5z"/>
		<path class="st1" d="M242.2,395.4c-5.5,0-10,4.5-10,10s4.5,10,10,10h0c5.5,0,10-4.5,10-10S247.7,395.4,242.2,395.4L242.2,395.4z"
			/>
	</g>
</g>
</svg>
