<?xml version="1.0" encoding="utf-8"?>
<!-- Generator: Adobe Illustrator 23.0.5, SVG Export Plug-In . SVG Version: 6.00 Build 0)  -->
<svg version="1.1" id="Outline" xmlns="http://www.w3.org/2000/svg" xmlns:xlink="http://www.w3.org/1999/xlink" x="0px" y="0px"
	 viewBox="0 0 512 512" style="enable-background:new 0 0 512 512;" xml:space="preserve">
<style type="text/css">
	.st0{fill:#20BCEE;}
	.st1{fill:#0E243F;}
</style>
<polygon class="st0" points="253.1,330.5 456.6,330.5 441.6,376 400,424 350.1,449.9 296,456.6 253.1,448 237.1,432 246.8,374 "/>
<path class="st1" d="M488,320h-40v-48c0-37.8-15.7-73.8-43.4-99.5c10.8-28.9,40.2-54.1,40.6-54.4c3.4-2.9,3.8-7.9,0.9-11.3
	c-1.5-1.8-3.7-2.8-6.1-2.8c-23.1,0-43.2,4.5-60.1,13.5c3.2-5.3,6.7-10.5,10.6-15.3c6.8-8.7,14.4-16.7,22.7-24.1
	c3.4-2.9,3.8-7.9,0.9-11.3c-1.5-1.8-3.8-2.8-6.1-2.8c-21.6,0-40.7,4-56.9,12c-2.2-16.7-9.8-46.3-35.5-59.1c-2.3-1.1-4.9-1.1-7.2,0
	c-25.6,12.8-33.2,42.3-35.5,59.1C256.8,68,237.7,64,216,64c-4.4,0-8,3.6-8,8c0,2.3,1,4.6,2.8,6.1c8.3,7.3,15.9,15.4,22.7,24.1
	c3.8,4.9,7.4,10,10.5,15.3c-16.8-9-36.9-13.5-60.1-13.5c-4.4,0-8,3.6-8,8c0,2.3,1,4.6,2.8,6.1c0.3,0.3,29.8,25.5,40.6,54.4
	C191.7,198.2,176,234.2,176,272v0.9c-8.8,1.7-20.5,5.5-26.7,10.2c-0.9,0.7-1.8,1.3-2.8,1.8c2.1-19.3,5.8-38.9,12.2-48.5l0,0
	c2.5-3.6,1.6-8.6-2.1-11.1c-3.6-2.5-8.6-1.6-11.1,2.1c0,0.1-0.1,0.1-0.1,0.2l0,0c-7.3,10.9-12.3,30.8-15.2,59.2
	c-2.7-0.8-5.2-2-7.4-3.7c-8.4-6.3-26.8-11.1-34.7-11.1c-20.9,0-39.8,8.5-53.1,24c-15.2,17.6-21.7,42.7-17.8,68.8l5,33.6
	c3.1,21.3,10.1,41.8,20.5,60.7c13.1,23.4,35.7,37,59.7,37c5.9,0,11.8-0.8,17.4-2.4c0.2-0.1,0.4-0.1,0.5-0.2l13.4-4.8
	c1.5-0.5,3.1-0.5,4.6,0l13.4,4.8c0.2,0.1,0.4,0.1,0.5,0.2c5.7,1.6,11.6,2.4,17.5,2.4c17.5,0,34.4-7.3,47.3-20.3
	c27.1,13.2,56.9,20.2,87.1,20.3c49.8,0,97.9-18.9,135.5-53.1C475.4,410.2,496,368.3,496,328C496,323.6,492.4,320,488,320z
	 M278.2,279.9l33.9-32.9l33.9,33l-33.9,32.8L278.2,279.9z M296.6,320h-45.7c-1.2-3.3-2.5-6.5-4.1-9.5l20-19.4L296.6,320z
	 M357.5,291.1l29.8,28.9h-59.6L357.5,291.1z M323.6,235.8l33.9-32.9l34,33l-33.9,32.8L323.6,235.8z M329.2,153.2
	c14.7,2.1,28.9,7,41.8,14.3l-13.5,13.1L329.2,153.2z M346,191.8l-33.9,32.9l-33.8-32.8l33.9-32.9L346,191.8z M266.8,180.7
	l-13.6-13.2c13-7.3,27.2-12.2,42-14.3L266.8,180.7z M266.8,203l33.8,32.9l-33.9,32.9L232.9,236L266.8,203z M255.2,279.9l-17.5,17
	c-0.2-0.3-0.5-0.6-0.7-0.9c-10.8-12.6-25.8-20.8-42.2-23.2l26.5-25.7L255.2,279.9z M249.9,398.4l5-33.6c1.5-9.6,1.5-19.3,0-28.8
	h191.7c-4.6,26.4-20.2,52.9-43.8,73.7C374.9,434.4,339.9,448,304,448c-21.8-0.1-43.3-5-63-14.5C245.2,422.1,248.1,410.4,249.9,398.4
	L249.9,398.4z M418.5,320l13.5-13.1V320H418.5z M432,284.6l-29.1,28.2L369,280l33.9-32.8l29.1,28.3V284.6z M430.2,251.3L414.4,236
	l9-8.7C426.5,235,428.8,243.1,430.2,251.3z M416,212.1l-13.1,12.7l-34-33l15.7-15.3C397.3,186.2,408,198.3,416,212.1L416,212.1z
	 M419,121.5c-9.2,10.1-20.3,24.4-27.3,40.3c-7.2-5.2-14.8-9.7-22.8-13.4c0.1-1.2,0.3-2.5,0.4-3.7C382.2,132.4,398.8,124.6,419,121.5
	L419,121.5z M387,81.5c-13,14.3-29.8,36.9-33.5,60.9c-9.4-3-19.1-5-29-5.9c-0.9-2.9-2.1-6.2-3.7-9.8C330.7,108,349.8,87.3,387,81.5
	L387,81.5z M312,33.2c19.8,12.9,23.3,42.5,23.9,51.9c-9.4,6.9-17.5,15.5-23.9,25.2c-3.7-5.6-7.9-10.8-12.6-15.6
	c-3.5-3.5-7.2-6.7-11.2-9.7C288.7,75.7,292.2,46.1,312,33.2z M237.1,81.6c44.3,6.9,62.8,35.2,70.3,54.5c-12.5,0.4-24.9,2.6-36.9,6.4
	c-0.3-1.6-0.6-3.2-0.9-4.8l0.3-0.3c-0.1-0.2-0.3-0.3-0.4-0.5C264.2,115,249,94.8,237.1,81.6z M205,121.5
	c20.1,3.1,36.8,10.9,49.6,23.2c0.2,1.2,0.3,2.5,0.4,3.7c-8,3.7-15.7,8.2-22.8,13.4C225.3,145.9,214.2,131.7,205,121.5z M239.5,176.5
	l15.8,15.4l-33.9,33L208.1,212C216.1,198.2,226.8,186.1,239.5,176.5L239.5,176.5z M200.7,227.1l9.1,8.9l-16.1,15.7
	C195.2,243.2,197.5,235,200.7,227.1L200.7,227.1z M215.4,451.3c-10.1,18.2-27.6,28.7-45.9,28.7c-4.3,0-8.6-0.6-12.7-1.7l-13.1-4.7
	c-5-1.8-10.4-1.8-15.4,0l-13.1,4.7c-22.6,6.2-46.1-4.6-58.6-27c-9.5-17.1-15.8-35.8-18.7-55.2l-5-33.6c-3.2-21.5,2-41.9,14.1-56
	c10.3-11.9,25.3-18.7,41-18.5c5.1,0,19.9,4.1,25.1,7.9c4.6,3.5,10,5.9,15.7,7c-0.4,6.4-0.6,12-0.7,16.3c-6.9-1.6-10.4-4.7-10.6-4.9
	l0.1,0.1c-3.1-3.1-8.2-3.2-11.3-0.1s-3.2,8.2-0.1,11.3c0,0,0,0,0.1,0.1c1.1,1.1,10.9,10.3,29.7,10.3c18.8,0,28.6-9.3,29.7-10.3
	c3.1-3.1,3.1-8.2,0-11.3s-8.2-3.1-11.3,0c0,0-3.5,3.1-10.2,4.7c0.1-4.8,0.4-10.5,0.8-16.6c5-1.2,9.8-3.5,13.9-6.6
	c5.1-3.8,20-7.9,25.1-7.9c15.7-0.2,30.7,6.6,41,18.5c12.2,14.1,17.3,34.5,14.1,56l-5,33.6C231.2,415.4,224.9,434.2,215.4,451.3z
	 M428.7,431.1C394.1,462.6,349.8,480,304,480c-26.6-0.1-52.8-5.9-76.9-17.2c0.8-1.2,1.5-2.5,2.2-3.8c2-3.5,3.8-7.1,5.5-10.8
	c21.6,10.2,45.2,15.6,69.1,15.7c39.8,0,78.6-15,109.4-42.3c27-24,44.8-54.8,49.4-85.7h16.9C477.1,369.4,458.9,403.6,428.7,431.1z"/>
<circle class="st1" cx="408" cy="360" r="8"/>
<circle class="st1" cx="368" cy="400" r="8"/>
<circle class="st1" cx="328" cy="376" r="8"/>
<circle class="st1" cx="280" cy="376" r="8"/>
<circle class="st1" cx="304" cy="424" r="8"/>
</svg>
