<?xml version="1.0" encoding="utf-8"?>
<!-- Generator: Adobe Illustrator 23.0.5, SVG Export Plug-In . SVG Version: 6.00 Build 0)  -->
<svg version="1.1" id="Capa_1" xmlns="http://www.w3.org/2000/svg" xmlns:xlink="http://www.w3.org/1999/xlink" x="0px" y="0px"
	 viewBox="0 0 480 480" style="enable-background:new 0 0 480 480;" xml:space="preserve">
<style type="text/css">
	.st0{fill:#20BCEE;}
	.st1{fill:#0E243F;}
</style>
<polygon class="st0" points="188.8,293.4 139.6,273.7 89.6,293.4 80.8,428.6 198.4,428.6 "/>
<rect x="300" y="216" class="st0" width="142" height="198"/>
<g>
	<g>
		<path class="st1" d="M251.2,436.2l-6.4-124.9c-0.8-20.3-5.3-40.2-13.4-58.9L199.8,179c-6.9-16.2-10.9-33.5-11.8-51h8
			c4.4,0,8-3.6,8-8V72c0-4.4-3.6-8-8-8h-25.4l-7.1-57c-0.5-4-3.9-7-7.9-7h-32c-4,0-7.4,3-7.9,7l-7.1,57H84c-4.4,0-8,3.6-8,8v48
			c0,4.4,3.6,8,8,8h7.2c-0.9,17.6-4.8,34.9-11.8,51.1l-31.6,73.3c-8,18.6-12.6,38.5-13.3,58.8L28,436.3c-0.4,8.8,2,17.6,6.9,25
			c7.6,11.7,20.7,18.8,34.6,18.8h140.1c14,0,27-7.1,34.6-18.8C249.1,453.8,251.6,445.1,251.2,436.2z M130.7,16h17.9l6,48h-29.9
			L130.7,16z M92,80h96v32H92V80z M230.9,452.5c-4.7,7.2-12.6,11.5-21.2,11.5H69.6c-8.6,0-16.6-4.4-21.2-11.5
			c-3-4.6-4.5-10-4.3-15.4l6.4-125.1c0.7-18.3,4.8-36.3,12.1-53.2l31.6-73.3c7.9-18.2,12.4-37.6,13.3-57.4h64.4
			c0.9,19.8,5.4,39.2,13.3,57.4l31.6,73.3c7.3,16.9,11.4,34.9,12.1,53.3l6.4,124.9C235.4,442.4,233.9,447.9,230.9,452.5z"/>
	</g>
</g>
<g>
	<g>
		<path class="st1" d="M211.6,431.6l-5.2-104.1c-1.6-36.9-32.8-65.5-69.7-63.9c-34.6,1.5-62.4,29.2-63.9,63.9l-5.2,104.1
			c-0.2,4.4,3.2,8.2,7.6,8.4c0.1,0,0.3,0,0.4,0h128c4.4,0,8-3.6,8-8C211.6,431.9,211.6,431.7,211.6,431.6z M84,424l4.8-95.7
			c1.5-28.1,25.4-49.6,53.5-48.1c26,1.4,46.7,22.1,48.1,48.1l4.8,95.7H84z"/>
	</g>
</g>
<g>
	<g>
		<path class="st1" d="M420,136v-8c4.4,0,8-3.6,8-8V80c0-4.4-3.6-8-8-8h-24.9L388,15c-0.5-4-3.9-7-7.9-7h-24c-4,0-7.4,3-7.9,7
			L341,72H316c-4.4,0-8,3.6-8,8v40c0,4.4,3.6,8,8,8v8c-17.7,0-32,14.3-32,32v296c0,8.8,7.2,16,16,16h136c8.8,0,16-7.2,16-16V168
			C452,150.3,437.7,136,420,136z M363.1,24h9.9l6,48h-21.9L363.1,24z M324,88h88v24h-88V88z M404,128v8h-72v-8H404z M436,464H300
			v-40h136V464z M436,408H300V224h136V408z M436,208H300v-40c0-8.8,7.2-16,16-16h104c8.8,0,16,7.2,16,16V208z"/>
	</g>
</g>
</svg>
