<?xml version="1.0" encoding="utf-8"?>
<!-- Generator: Adobe Illustrator 23.0.5, SVG Export Plug-In . SVG Version: 6.00 Build 0)  -->
<svg version="1.1" id="Слой_1" xmlns="http://www.w3.org/2000/svg" xmlns:xlink="http://www.w3.org/1999/xlink" x="0px" y="0px"
	 viewBox="0 0 512 512" style="enable-background:new 0 0 512 512;" xml:space="preserve">
<style type="text/css">
	.st0{fill:#20BCEE;}
	.st1{fill:#0E243F;}
</style>
<path class="st0" d="M182.6,296.4l90-89.6h62L215.2,327c0,0-5.4,12.6-6.7,9S176,302.7,176,302.7L182.6,296.4z"/>
<polygon class="st0" points="21.8,456 72.1,407 98.9,363.1 148.9,413.1 100.5,441.6 78.8,467.2 "/>
<polygon class="st0" points="398.6,34.4 428.7,14.3 460.5,24.3 488,52.8 495.7,78.8 483.1,108.7 475.6,120.6 468.7,141.6 
	439.6,167.5 343.3,70.4 381.8,32.7 "/>
<g id="Layer_23">
	<g>
		<path class="st1" d="M16,472h64c2.1,0,4.2-0.8,5.7-2.3l23.1-23.1l46.2-23.1l55.3-15.8c1.3-0.4,2.5-1.1,3.5-2L480,139.3
			c5.1-5.1,6-12.7,2.8-18.8l7.6-7.6c8.7-8.7,13.7-20.7,13.7-33s-5-24.3-13.7-33L465,21.7C456.2,12.8,444.5,8,432,8
			s-24.2,4.8-33,13.7l-7.6,7.6c-6-3.2-13.7-2.3-18.8,2.8L106.3,298.3c-1,1-1.7,2.2-2,3.5l-15.8,55.3l-23.1,46.2l-55.1,55.1
			c-2.3,2.3-3,5.7-1.7,8.7S12.8,472,16,472L16,472z M332.2,200h-40.9l18.3-18.3c5.7-5.7,15-5.7,20.7,0
			C335.3,186.6,336,194.3,332.2,200L332.2,200z M275.3,216h41.4L208,324.7L187.3,304L275.3,216z M341.7,213.7
			c11.9-11.9,11.9-31.4,0-43.3c-11.9-11.9-31.4-11.9-43.3,0L176,292.7L155.3,272L344,83.3l84.7,84.7L240,356.7L219.3,336
			L341.7,213.7z M228.7,368L208,388.7L123.3,304l20.7-20.7L228.7,368z M453.7,33L479,58.3c5.7,5.7,9,13.6,9,21.7s-3.3,16-9,21.7
			l-7,7L403.3,40l7-7C421.9,21.4,442.1,21.4,453.7,33L453.7,33z M384,43.3l84.7,84.7L440,156.7L355.3,72L384,43.3z M116,319.3
			l76.8,76.8l-38.4,11L105,357.7L116,319.3z M98.2,373.5l40.3,40.3l-32.9,16.5l-23.8-23.8L98.2,373.5z M72,419.3L92.7,440l-16,16
			H35.3L72,419.3z"/>
		<path class="st1" d="M8,488h496v16H8V488z"/>
	</g>
</g>
</svg>
