<?xml version="1.0" encoding="utf-8"?>
<!-- Generator: Adobe Illustrator 23.0.5, SVG Export Plug-In . SVG Version: 6.00 Build 0)  -->
<svg version="1.1" id="Слой_1" xmlns="http://www.w3.org/2000/svg" xmlns:xlink="http://www.w3.org/1999/xlink" x="0px" y="0px"
	 viewBox="0 0 504 504" style="enable-background:new 0 0 504 504;" xml:space="preserve">
<style type="text/css">
	.st0{fill:#20BCEE;}
	.st1{fill:#0E243F;}
</style>
<polygon class="st0" points="133.4,170.2 248.9,251.8 378.4,121.1 295.8,6.1 192.5,108.3 205.9,145.7 198.6,151.8 167.6,134.5 "/>
<polygon class="st0" points="53,212.1 156,200.6 199.5,216.5 209,229.9 189.5,237.2 96.5,229.9 44.6,220.4 "/>
<polygon class="st0" points="129.2,400.2 164.6,312.4 185.3,339.9 205.9,406.3 195.2,436.5 165.2,445.4 137.1,433.1 "/>
<path class="st1" d="M183.4,315.7c-2.6-6.3-8.7-10.3-15.5-10.3c-6.8,0-12.9,4.1-15.5,10.4l-21.8,54l-6.4,15.4
	c-6.1,14.7-4.8,31.4,3.3,45c7.4,12.8,20.5,21.2,35.2,22.8c1.7,0.2,3.5,0.3,5.2,0.3c1.7,0,3.5-0.1,5.2-0.3
	c14.7-1.5,27.8-10,35.3-22.8c8.1-13.6,9.3-30.3,3.3-45L183.4,315.7z M193.9,421.6c-4.7,8.2-13.1,13.7-22.5,14.7
	c-2.3,0.2-4.6,0.2-6.9,0c-9.4-1-17.8-6.5-22.5-14.7c-5.4-9.1-6.2-20.2-2.2-30l28.2-69.5l21.8,54.1l6.4,15.4
	C200.1,401.4,199.3,412.5,193.9,421.6z"/>
<path class="st1" d="M50.4,285.4c-4.6,0-8.4,3.8-8.4,8.4v8.4c0,4.6,3.8,8.4,8.4,8.4c4.6,0,8.4-3.8,8.4-8.4v-8.4
	C58.8,289.1,55,285.4,50.4,285.4z"/>
<path class="st1" d="M50.4,327.3c-4.6,0-8.4,3.8-8.4,8.4v109.1c0,4.6,3.8,8.4,8.4,8.4c4.6,0,8.4-3.8,8.4-8.4V335.7
	C58.8,331.1,55,327.3,50.4,327.3z"/>
<path class="st1" d="M456.7,272.6c-20.6-10.6-38.4-20-44.8-40.6l38.3-38.3c3.1-3.1,4.9-7.4,4.9-11.9c0-4.5-1.8-8.7-4.9-11.9
	l-53.4-53.4c-3.9-3.9-9.5-5.6-14.9-4.6L308.5,7.2c-2.8-4.1-7.3-6.7-12.3-7.1c-4.9-0.4-9.8,1.3-13.3,4.9l-95.3,95.3
	c-5.3,5.3-6.4,13.5-2.8,20l12.3,22.2l-22.2-12.3c-6.6-3.6-14.7-2.5-20,2.8L130.8,157c-1,1.1-1.9,2.3-2.7,3.6
	C91.6,162.5,0,170.6,0,201.5V235c0.3,6,3.4,11.6,8.4,15v213.2c0.1,0.5,0.1,0.9,0.3,1.4l0,0.1c0.1,0.7,0.3,1.5,0.6,2.2
	c10.1,28.8,102.6,36.7,158.5,36.7c59.2,0,159.5-8.8,159.5-42V316.5l30.5-30.5c20.6,6.4,30,24.2,40.6,44.8
	c5.5,11.9,12.4,23,20.6,33.3c7.4,8.6,18.1,13.7,29.4,14c0.5,0,1,0,1.5,0c11.2,0,22-4.5,30-12.4l11.6-11.6
	c8.3-8.3,12.8-19.8,12.4-31.5c-0.3-11.3-5.4-22-14-29.4C479.7,285,468.5,278.1,456.7,272.6z M438.3,181.8L307.7,312.4L254.3,259
	l130.6-130.6L438.3,181.8z M21.7,238.9c-1.9-0.9-3.6-2.3-4.9-3.9l0,0v-13.1c3.3,1.6,6.7,3,10.2,4.2l0.4,0.1l0,0
	c29.7,10.7,82.1,17.2,140.5,17.2c16.7,0,33.4-0.6,49.7-1.7l20.3,14.2c0,0.2,0,0.5-0.1,0.7c-23.2,2.4-46.5,3.6-69.9,3.5
	C102.8,260.2,42.8,251.5,21.7,238.9z M172.1,209.9l23.1,16.2c-9.1,0.3-18.2,0.5-27.4,0.5c-35,0.3-70.1-2.5-104.6-8.4
	c34.6-5.9,69.6-8.7,104.6-8.4C169.3,209.9,170.7,209.9,172.1,209.9L172.1,209.9z M166.7,144.8l47.9,26.6c3.3,1.8,7.4,1.2,10-1.4
	c2.6-2.7,3.2-6.7,1.4-10l-26.6-47.9l36.5-36.5l53.5,64.2c1.9,2.4,4.9,3.6,7.9,3.1c3-0.5,5.5-2.6,6.5-5.4c1-2.9,0.4-6.1-1.6-8.4
	l-54.4-65.3l46.9-46.9L368,121.5L247.4,242.1l-104.7-73.3L166.7,144.8z M128.2,177.4c1.2,2.1,2.9,3.8,4.8,5.2l15.3,10.7
	c-48.8,1.2-91.8,7-118.3,16c-5-1.5-9.5-4.1-13.3-7.6v0C19.3,195,54.5,181.4,128.2,177.4z M167.9,486.8c-88.8,0-140-16.4-142.7-25.3
	V259c28.9,11.1,82.3,18,142.7,18c25.6,0,51.1-1.3,76.6-4.1l51.4,51.4c3.1,3.2,7.4,4.9,11.9,4.9c0.9,0,1.9-0.1,2.8-0.3v132.6
	C308,470.4,256.8,486.8,167.9,486.8z M479.7,342.2l-11.6,11.6c-5,5-11.9,7.7-19,7.5c-6.7-0.2-12.9-3.2-17.3-8.2
	c-7.3-9.3-13.4-19.3-18.3-30c-9.7-18.9-20.5-39.9-42.4-50.2l27.8-27.8c10.3,21.9,31.3,32.7,50.2,42.4c10.7,4.9,20.7,11.1,30,18.3
	c5,4.4,8,10.6,8.2,17.3C487.4,330.3,484.7,337.2,479.7,342.2z"/>
<path class="st1" d="M289.9,247.1l-5.9,5.9c-2.2,2.1-3,5.2-2.3,8.2c0.8,2.9,3.1,5.2,6,6c2.9,0.8,6-0.1,8.2-2.3l5.9-5.9
	c3.2-3.3,3.2-8.5-0.1-11.8C298.5,243.9,293.2,243.9,289.9,247.1z"/>
<path class="st1" d="M378.9,158.1l-65.3,65.3c-2.2,2.1-3,5.2-2.3,8.2c0.8,2.9,3.1,5.2,6,6c2.9,0.8,6-0.1,8.2-2.3l65.3-65.3
	c2.2-2.1,3-5.2,2.3-8.2s-3.1-5.2-6-6C384.2,155.1,381,155.9,378.9,158.1z"/>
</svg>
