<?xml version="1.0" encoding="utf-8"?>
<!-- Generator: Adobe Illustrator 23.0.5, SVG Export Plug-In . SVG Version: 6.00 Build 0)  -->
<svg version="1.1" id="Слой_1" xmlns="http://www.w3.org/2000/svg" xmlns:xlink="http://www.w3.org/1999/xlink" x="0px" y="0px"
	 viewBox="0 0 121.38 121.38" style="enable-background:new 0 0 121.38 121.38;" xml:space="preserve">
<style type="text/css">
	.st0{clip-path:url(#SVGID_2_);fill:#19BBEE;}
	.st1{clip-path:url(#SVGID_2_);fill:#0D243F;}
</style>
<g>
	<defs>
		<rect id="SVGID_1_" width="121.38" height="121.38"/>
	</defs>
	<clipPath id="SVGID_2_">
		<use xlink:href="#SVGID_1_"  style="overflow:visible;"/>
	</clipPath>
	<path class="st0" d="M1.56,119.51c0,0,6.25-10.36,7.1-14.48c0.84-4.12,1.84-13.16,2.03-16.06c0.08-1.28,53.27-3.95,53.27,0.89
		c0,7.41-3.92,20.85-5.78,24.57c-1.86,3.72-5.92,5.07-5.92,5.07H1.56z"/>
	<path class="st1" d="M62.3,45.02c-1.41,0-2.56,1.15-2.56,2.56c0,1.41,1.15,2.56,2.56,2.56c1.41,0,2.56-1.15,2.56-2.56
		C64.86,46.17,63.71,45.02,62.3,45.02 M62.3,54.15c-3.62,0-6.57-2.95-6.57-6.57c0-3.62,2.95-6.57,6.57-6.57
		c3.62,0,6.57,2.95,6.57,6.57C68.87,51.2,65.93,54.15,62.3,54.15"/>
	<path class="st1" d="M66.08,81.68c0-4.45-3.62-8.06-8.06-8.06H44.57V43.64c0-1.04-0.85-1.89-1.89-1.89c-1.04,0-1.89,0.85-1.89,1.89
		v16.99h-6.74V3.78h6.74v18.35c0,1.04,0.85,1.89,1.89,1.89c1.04,0,1.89-0.85,1.89-1.89V1.89c0-1.04-0.85-1.89-1.89-1.89H32.17
		c-1.04,0-1.89,0.85-1.89,1.89v71.73H16.83c-4.45,0-8.06,3.62-8.06,8.06v6.3c0,10.82-2.94,21.38-8.49,30.52
		c-0.35,0.58-0.37,1.31-0.03,1.91c0.33,0.59,0.97,0.96,1.65,0.96h53.54c0.65,0,1.27-0.35,1.61-0.91c5.91-9.74,9.04-20.97,9.04-32.48
		V81.68z M34.06,64.41h6.74v9.21h-6.74V64.41z M62.25,90.39c-0.38,9.49-3.06,18.81-7.75,26.95l-0.14,0.25H40.84l0.38-0.73
		c2.02-3.91,3.65-8.08,4.82-12.4c0.13-0.49,0.07-1-0.18-1.43c-0.25-0.44-0.66-0.75-1.14-0.89c-1.01-0.27-2.05,0.32-2.32,1.33
		c-1.33,4.89-3.26,9.56-5.74,13.87l-0.15,0.25H22.99l0.38-0.73c2.03-3.91,3.65-8.08,4.83-12.4c0.13-0.49,0.07-1-0.18-1.43
		c-0.25-0.44-0.66-0.75-1.14-0.89c-1.01-0.27-2.05,0.32-2.32,1.33c-1.33,4.9-3.27,9.56-5.74,13.87l-0.15,0.25H5.15l0.38-0.73
		c4.21-8.12,6.63-17.29,6.97-26.51l0.02-0.48h49.76L62.25,90.39z M62.3,86.07H12.54v-4.39c0-2.36,1.92-4.28,4.28-4.28h41.19
		c2.36,0,4.28,1.92,4.28,4.28V86.07z"/>
	<path class="st1" d="M88.29,106.81c1.56-1.56,2.42-3.64,2.42-5.85c0-2.21-0.86-4.29-2.42-5.85c-1.56-1.56-3.64-2.42-5.85-2.42
		s-4.29,0.86-5.85,2.42c-0.74,0.74-0.74,1.93,0,2.67c0.74,0.74,1.93,0.74,2.67,0c0.85-0.85,1.98-1.32,3.18-1.32
		c1.2,0,2.33,0.47,3.18,1.32s1.32,1.98,1.32,3.18c0,1.2-0.47,2.33-1.32,3.18c-0.36,0.36-0.55,0.83-0.55,1.34
		c0,0.5,0.2,0.98,0.55,1.34C86.33,107.52,87.57,107.52,88.29,106.81"/>
	<path class="st1" d="M80.25,58.8c-4.6,0-8.34,3.74-8.34,8.34c0,1.04,0.85,1.89,1.89,1.89c1.04,0,1.89-0.85,1.89-1.89
		c0-2.52,2.05-4.56,4.56-4.56c2.52,0,4.56,2.05,4.56,4.56c0,1.04,0.85,1.89,1.89,1.89c1.04,0,1.89-0.85,1.89-1.89
		C88.59,62.54,84.85,58.8,80.25,58.8"/>
	<path class="st1" d="M106.04,121.38c8.46,0,15.33-6.88,15.33-15.33c0-6.1-3.61-11.62-9.19-14.05l-0.5-0.22l0.26-0.48
		c1.08-1.98,1.66-4.24,1.66-6.51c0-7.5-6.1-13.6-13.6-13.6c-3.53,0-6.87,1.34-9.41,3.78c-0.75,0.72-0.78,1.92-0.06,2.67
		c0.72,0.75,1.92,0.78,2.67,0.06c1.84-1.76,4.25-2.73,6.79-2.73c5.41,0,9.82,4.4,9.82,9.82c0,2.52-0.96,4.92-2.69,6.75
		c-0.48,0.5-0.64,1.23-0.42,1.89c0.21,0.66,0.77,1.15,1.45,1.27c5.47,1.01,9.44,5.79,9.44,11.36c0,6.37-5.18,11.56-11.56,11.56
		c-4.06,0-7.75-2.07-9.87-5.54c-0.36-0.58-0.98-0.91-1.62-0.91c-0.33,0-0.67,0.09-0.98,0.28c-0.43,0.26-0.73,0.68-0.85,1.17
		c-0.12,0.49-0.04,1,0.22,1.43C95.75,118.63,100.65,121.38,106.04,121.38"/>
	<path class="st1" d="M42.68,30.4c-0.65,0-1.28,0.27-1.73,0.73c-0.46,0.46-0.72,1.11-0.72,1.76c0,0.66,0.26,1.3,0.72,1.76
		c0.91,0.93,2.55,0.93,3.46,0c0.46-0.46,0.72-1.11,0.72-1.76c0-0.65-0.26-1.3-0.72-1.76C43.96,30.66,43.33,30.4,42.68,30.4"/>
</g>
</svg>
