<?xml version="1.0" encoding="utf-8"?>
<!-- Generator: Adobe Illustrator 23.0.5, SVG Export Plug-In . SVG Version: 6.00 Build 0)  -->
<svg version="1.1" id="Capa_1" xmlns="http://www.w3.org/2000/svg" xmlns:xlink="http://www.w3.org/1999/xlink" x="0px" y="0px"
	 viewBox="0 0 480 480" style="enable-background:new 0 0 480 480;" xml:space="preserve">
<style type="text/css">
	.st0{fill:#0E243F;}
	.st1{fill:#20BCEE;}
</style>
<g>
	<g>
		<path class="st0" d="M468.24,11.65c-5.02-4.96-11.25-8.51-18.07-10.31C446.86,0.42,443.44-0.02,440,0H120
			C89.09,0.04,64.04,25.09,64,56v344H8c-4.42,0-8,3.58-8,8v16c0.04,30.91,25.09,55.96,56,56h320c22.08-0.03,39.97-17.92,40-40V80h56
			c4.42,0,8-3.58,8-8V40C479.99,29.36,475.76,19.17,468.24,11.65z M56,464c-22.08-0.03-39.97-17.92-40-40v-8h304v8
			c-0.02,15.05,6.04,29.48,16.8,40H56z M407.39,16.98c-0.47,0.66-0.88,1.37-1.31,2.06c-0.84,1.34-1.59,2.73-2.26,4.16
			c-0.37,0.8-0.71,1.6-1.03,2.4c-0.59,1.55-1.08,3.13-1.47,4.74c-0.19,0.75-0.42,1.49-0.57,2.26c-0.48,2.44-0.72,4.92-0.74,7.4v392
			v8c0,13.26-10.74,24-24,24c-22.08-0.03-39.97-17.92-40-40v-16c0-4.42-3.58-8-8-8H80V56c0.03-22.08,17.92-39.97,40-40h288
			C407.78,16.31,407.61,16.67,407.39,16.98z M464,64h-48V40c0-13.26,10.74-24,24-24c2.03-0.02,4.05,0.25,6.01,0.8
			c4.12,1.08,7.89,3.21,10.94,6.19c4.51,4.51,7.04,10.63,7.06,17.01V64z"/>
	</g>
</g>
<ellipse class="st1" cx="239.14" cy="153.1" rx="50.23" ry="46.24"/>
<polygon class="st1" points="179.14,209.7 197.98,211.79 211.79,232.72 240,228.53 184.1,328.58 164.49,298.44 127.23,295.93 "/>
<polygon class="st1" points="244,230.63 269.56,233.14 285.88,209.7 304.72,209.7 352.02,295.51 318.4,299.28 295.92,328.58 "/>
<g>
	<g>
		<path class="st0" d="M240,96c-30.93,0-56,25.07-56,56c0.04,30.91,25.09,55.96,56,56c30.93,0,56-25.07,56-56S270.93,96,240,96z
			 M240,192c-22.09,0-40-17.91-40-40c0.03-22.08,17.92-39.97,40-40c22.09,0,40,17.91,40,40S262.09,192,240,192z"/>
	</g>
</g>
<g>
	<g>
		<path class="st0" d="M359.43,296.49c-0.07-1.25-0.44-2.46-1.07-3.54l-46.83-81.1c1.87-1.12,3.5-2.59,4.8-4.34
			c3.58-6.49,4.31-14.16,2.03-21.21c-0.78-2.96-1.05-6.02-0.8-9.07c1.55-2.44,3.47-4.62,5.7-6.46c6.17-4.43,10.2-11.23,11.13-18.77
			c-0.91-7.53-4.93-14.33-11.07-18.77c-2.23-1.84-4.16-4.01-5.7-6.46c-0.25-3.05,0.02-6.11,0.8-9.07c2.28-7.04,1.54-14.72-2.03-21.2
			c-5.1-5.44-12.23-8.51-19.69-8.5c-2.99-0.2-5.93-0.88-8.7-2.02c-1.9-2.27-3.42-4.83-4.5-7.59c-2.31-7.14-7.49-13.01-14.29-16.19
			c-7.2-1.42-14.67,0.25-20.58,4.6c-2.65,1.69-5.57,2.91-8.63,3.6c-3.05-0.69-5.96-1.91-8.6-3.6c-5.91-4.35-13.38-6.02-20.58-4.6
			c-6.81,3.18-11.98,9.05-14.29,16.2c-1.08,2.75-2.6,5.32-4.5,7.58c-2.78,1.14-5.73,1.82-8.74,2c-7.45,0-14.57,3.08-19.66,8.51
			c-3.57,6.49-4.31,14.16-2.03,21.21c0.78,2.96,1.05,6.03,0.8,9.07c-1.55,2.44-3.47,4.62-5.7,6.46
			c-6.15,4.43-10.18,11.24-11.1,18.77c0.91,7.53,4.93,14.33,11.07,18.77c2.23,1.84,4.16,4.01,5.7,6.46c0.25,3.05-0.02,6.12-0.8,9.07
			c-2.28,7.04-1.54,14.72,2.03,21.2c1.3,1.76,2.95,3.24,4.84,4.35l-46.85,81.11c-2.22,3.82-0.92,8.72,2.91,10.93
			c1.08,0.63,2.29,0.99,3.54,1.07l31.76,1.92l17.48,26.5c1.49,2.25,4.01,3.59,6.71,3.58h0.24c2.77-0.08,5.3-1.6,6.69-4L240,248
			l49.07,84.96c1.39,2.4,3.92,3.92,6.69,4H296c2.69,0,5.2-1.35,6.68-3.59l17.48-26.5l31.76-1.92
			C356.33,304.68,359.7,300.9,359.43,296.49z M183.55,313.74l-9.84-14.92l13.49-23.4l-13.86-8l-13.52,23.42l-17.88-1.09l42.49-73.6
			c2.62,0.17,5.18,0.79,7.58,1.84c1.9,2.27,3.42,4.83,4.5,7.59c2.31,7.14,7.49,13.01,14.29,16.19c1.6,0.53,3.27,0.8,4.96,0.8
			c3.65-0.16,7.23-1.11,10.48-2.79L183.55,313.74z M223.82,223.11c-2.47,1.6-5.19,2.77-8.05,3.47c-2.07-2.31-3.7-4.98-4.8-7.88
			c-2.01-5.24-5.29-9.91-9.53-13.6c-4.85-2.93-10.34-4.62-16-4.92c-3.03-0.18-6-0.87-8.8-2.04c-0.27-3.01-0.01-6.04,0.74-8.97
			c1.47-5.52,1.56-11.31,0.26-16.87c-2.19-5.12-5.61-9.62-9.96-13.1c-1.98-1.91-6.09-5.82-6.09-7.2s4.11-5.29,6.09-7.2
			c4.33-3.49,7.74-8,9.9-13.12c1.3-5.55,1.21-11.34-0.25-16.86c-0.75-2.91-1.02-5.92-0.8-8.92c2.81-1.21,5.81-1.93,8.87-2.1
			c5.66-0.3,11.15-1.99,16-4.93c4.24-3.68,7.51-8.35,9.52-13.6c1.11-2.87,2.7-5.53,4.7-7.86h0.17c2.82,0.75,5.52,1.92,8,3.46
			c4.86,3.14,10.42,5.04,16.19,5.51c5.76-0.48,11.32-2.37,16.18-5.51c2.49-1.57,5.2-2.74,8.05-3.47c2.07,2.31,3.7,4.98,4.8,7.88
			c2.01,5.25,5.29,9.92,9.53,13.6c4.85,2.93,10.34,4.62,16,4.92c3.03,0.18,6,0.87,8.8,2.04c0.27,3.01,0.02,6.04-0.74,8.97
			c-1.47,5.52-1.56,11.31-0.26,16.87c2.19,5.12,5.61,9.62,9.96,13.1c1.98,1.88,6.09,5.78,6.09,7.2s-4.11,5.29-6.09,7.2
			c-4.33,3.49-7.73,8-9.9,13.12c-1.3,5.55-1.21,11.34,0.25,16.86c0.75,2.91,1.02,5.92,0.8,8.92c-2.81,1.21-5.81,1.93-8.87,2.1
			c-5.66,0.3-11.15,1.99-16,4.93c-4.24,3.68-7.51,8.35-9.52,13.6c-1.11,2.87-2.7,5.53-4.7,7.86c-2.89-0.67-5.65-1.84-8.14-3.45
			c-4.87-3.15-10.44-5.05-16.22-5.53C234.24,218.08,228.68,219.97,223.82,223.11z M320.16,290.84l-13.52-23.42l-13.86,8l13.5,23.4
			l-9.84,14.92l-42.68-73.9c4.68,2.64,10.21,3.34,15.41,1.96c6.81-3.18,11.98-9.05,14.29-16.2c1.09-2.76,2.62-5.32,4.54-7.58
			c2.4-1.04,4.97-1.67,7.58-1.84l42.49,73.6L320.16,290.84z"/>
	</g>
</g>
</svg>
