<?xml version="1.0" encoding="utf-8"?>
<!-- Generator: Adobe Illustrator 23.0.5, SVG Export Plug-In . SVG Version: 6.00 Build 0)  -->
<svg version="1.1" id="Capa_1" xmlns="http://www.w3.org/2000/svg" xmlns:xlink="http://www.w3.org/1999/xlink" x="0px" y="0px"
	 viewBox="0 0 512 512" style="enable-background:new 0 0 512 512;" xml:space="preserve">
<style type="text/css">
	.st0{fill:#20BCEE;}
	.st1{fill:#0E243F;}
</style>
<polygon class="st0" points="301.6,402.5 380.2,438.8 375.1,481.7 346.1,508 307,496.3 293.7,465 "/>
<path class="st0" d="M304.3,355l-27.9-134l14-57.5l41.9-37.4l40.7,7l30.7,24.8l16.7,41.3c0,0,2.2,45.2,2.2,46.9s-6.4,56.9-6.4,56.9
	L400.8,355l-12.9,44.1L304.3,355z"/>
<path class="st1" d="M302,396.2c-3.1-1.4-6.8,0-8.2,3.1c-0.3,0.7-0.5,1.4-0.5,2.1l-4,58.7c-1.8,26.7,18.4,49.8,45.1,51.7
	c1.1,0.1,2.2,0.1,3.4,0.1c25.5,0,46.6-19.8,48.3-45.2l1.9-27.7c0.2-2.6-1.3-5.1-3.7-6.1L302,396.2z M373.6,465.9
	c-1.3,19.8-18.5,34.8-38.4,33.5s-34.8-18.5-33.5-38.4l3.4-49.8l70.1,31.3L373.6,465.9z"/>
<path class="st1" d="M272.5,240.3l25.8,121.6c0.4,1.9,1.7,3.5,3.4,4.4l83.7,39.4c3.1,1.5,6.8,0.1,8.3-3c0.1-0.3,0.3-0.6,0.4-1
	l26.1-93.3c0-0.1,0.1-0.2,0.1-0.4c10-45.9,11.1-84.9,3.4-116.2c-6.6-26.6-19.6-47.1-37.8-59.3c-22.3-15-50.7-15.8-70.7-2.2
	c-2,1.2-14.6,9.1-25.8,25.5c-11,16-22.8,43.5-17,84C272.5,240,272.5,240.1,272.5,240.3L272.5,240.3z M299.4,163.4
	c10.4-15.3,22.2-22.3,22.3-22.3c0.2-0.1,0.3-0.2,0.5-0.3c13.2-9.1,35.9-11.9,56.8,2.1c35.7,24,46.4,83.1,29.2,162.2l-24,86
	l-74.2-34.9l-25.1-118.4C280.6,208.9,285.5,183.9,299.4,163.4L299.4,163.4z"/>
<path class="st1" d="M215.5,276c-1.7-1.1-3.9-1.2-5.8-0.4l-82.3,36.6c-2.4,1.1-3.9,3.5-3.7,6.1l1.8,27.7
	c1.7,25.5,22.8,45.3,48.3,45.3c1.1,0,2.2,0,3.3-0.1c26.7-1.8,47-24.8,45.2-51.6c0,0,0,0,0,0l-3.9-58.7
	C218.3,278.9,217.2,277,215.5,276z M201,366.5c-13.1,15-35.8,16.5-50.8,3.4c-7.2-6.3-11.6-15.2-12.2-24.7l-1.5-23.3l70.1-31.2
	l3.3,49.8C210.5,350,207.3,359.4,201,366.5L201,366.5z"/>
<path class="st1" d="M91.6,187.5l25.9,93.3c0.9,3.3,4.4,5.3,7.7,4.3c0.3-0.1,0.7-0.2,1-0.4l83.8-39.2c1.8-0.8,3-2.4,3.5-4.3
	l26-121.6c0-0.1,0.1-0.3,0.1-0.4c6-40.5-5.8-68-16.8-84C211.5,18.8,199,11,196.9,9.7c-20-13.7-48.4-12.9-70.7,2
	C108.1,23.9,95,44.4,88.3,71c-7.8,31.2-6.7,70.3,3.2,116.2C91.6,187.3,91.6,187.4,91.6,187.5z M133.2,22.2c21-14,43.7-11.1,56.8-2
	c0.1,0.1,0.3,0.2,0.4,0.3c0.1,0.1,11.9,7,22.3,22.4c13.8,20.5,18.7,45.5,14.4,74.5l-25.4,118.3l-74.3,34.8l-23.9-86.1
	C86.7,105.2,97.4,46.1,133.2,22.2L133.2,22.2z"/>
</svg>
