<?xml version="1.0" encoding="utf-8"?>
<!-- Generator: Adobe Illustrator 23.0.5, SVG Export Plug-In . SVG Version: 6.00 Build 0)  -->
<svg version="1.1" id="Слой_1" xmlns="http://www.w3.org/2000/svg" xmlns:xlink="http://www.w3.org/1999/xlink" x="0px" y="0px"
	 viewBox="0 0 448 480" style="enable-background:new 0 0 448 480;" xml:space="preserve">
<style type="text/css">
	.st0{clip-path:url(#SVGID_2_);fill:#0E243F;}
	.st1{clip-path:url(#SVGID_2_);fill:#20BCEE;}
</style>
<g>
	<defs>
		<rect id="SVGID_1_" width="448" height="480"/>
	</defs>
	<clipPath id="SVGID_2_">
		<use xlink:href="#SVGID_1_"  style="overflow:visible;"/>
	</clipPath>
	<path class="st0" d="M176,472V128c-0.04-10.13-6.45-19.15-16-22.53V80c0-4.42-3.58-8-8-8h-24V8c0-4.42-3.58-8-8-8H56
		c-4.42,0-8,3.58-8,8v64H24c-4.42,0-8,3.58-8,8v25.47C6.45,108.85,0.04,117.87,0,128v344c0,4.42,3.58,8,8,8h160
		C172.42,480,176,476.42,176,472 M64,16h48v56H64V16z M32,88h112v16H32V88z M160,464H16V128c0-4.42,3.58-8,8-8h128
		c4.42,0,8,3.58,8,8V464z"/>
	<rect x="272.07" y="426.52" class="st1" width="93.73" height="41.43"/>
	<rect x="80" y="32" class="st0" width="16" height="16"/>
	<rect x="45.46" y="148.24" class="st1" width="84.13" height="151.96"/>
	<path class="st0" d="M136,136H40c-4.42,0-8,3.58-8,8v160c0,4.42,3.58,8,8,8h96c4.42,0,8-3.58,8-8V144
		C144,139.58,140.42,136,136,136 M128,240v56H48V152h80V240z"/>
	<path class="st0" d="M48,408H32v32c0,4.42,3.58,8,8,8h32v-16H48V408z"/>
	<path class="st0" d="M440,208h-8v-56c0-3.44-2.21-6.5-5.47-7.58C392,133.81,356.12,128.28,320,128
		c-36.12,0.28-72,5.81-106.53,16.42c-3.26,1.09-5.47,4.14-5.47,7.58v56h-8c-4.42,0-8,3.58-8,8v32c0,4.42,3.58,8,8,8h8v24
		c-0.01,1.23,0.26,2.45,0.8,3.55c9.71,21.53,14.88,44.83,15.2,68.45c-0.35,23.62-5.52,46.91-15.2,68.46
		c-0.54,1.11-0.81,2.32-0.8,3.54v48c0,4.42,3.58,8,8,8h208c4.42,0,8-3.58,8-8v-48c0.01-1.23-0.26-2.45-0.8-3.55
		c-9.71-21.53-14.88-44.83-15.2-68.45c0.35-23.62,5.52-46.91,15.2-68.46c0.53-1.11,0.81-2.32,0.8-3.54v-24h8c4.42,0,8-3.58,8-8v-32
		C448,211.58,444.42,208,440,208 M224,157.93c13.16-3.72,26.51-6.71,40-8.97l16-2.36c13.27-1.69,26.63-2.56,40-2.6
		c32.48,0.37,64.76,5.05,96,13.93V208H224V157.93z M280,464v-32h16v16h16v-16h16v16h16v-16h16v32H280z M416,272h-24v16h20
		c-1.6,4.33-3.44,9.74-5.18,16H384v16h19.08c-0.94,5.04-1.72,10.4-2.26,16H376v16h24c0,5.5,0.31,10.84,0.8,16H384v16h19.08
		c1.09,5.78,2.4,11.14,3.72,16H392v16h20c1.7,4.53,3.15,7.89,4,9.79V464h-40v-40c0-4.42-3.58-8-8-8h-96c-4.42,0-8,3.58-8,8v40h-40
		v-38.21c0.87-1.9,2.33-5.26,4-9.79h20v-16h-14.8c1.34-4.86,2.63-10.22,3.72-16H256v-16h-16.8c0.5-5.16,0.8-10.5,0.8-16h24v-16
		h-24.8c-0.54-5.6-1.32-10.96-2.26-16H256v-16h-22.8c-1.74-6.26-3.56-11.67-5.18-16H248v-16h-24v-16h192V272z M432,240H208v-16h224
		V240z"/>
</g>
</svg>
