<?xml version="1.0" encoding="utf-8"?>
<!-- Generator: Adobe Illustrator 23.0.5, SVG Export Plug-In . SVG Version: 6.00 Build 0)  -->
<svg version="1.1" id="Слой_1" xmlns="http://www.w3.org/2000/svg" xmlns:xlink="http://www.w3.org/1999/xlink" x="0px" y="0px"
	 viewBox="0 0 496 496" style="enable-background:new 0 0 496 496;" xml:space="preserve">
<style type="text/css">
	.st0{clip-path:url(#SVGID_2_);fill:#20BCEE;}
	.st1{clip-path:url(#SVGID_2_);fill:#0E243F;}
</style>
<g>
	<defs>
		<rect id="SVGID_1_" width="496" height="496"/>
	</defs>
	<clipPath id="SVGID_2_">
		<use xlink:href="#SVGID_1_"  style="overflow:visible;"/>
	</clipPath>
	<path class="st0" d="M268.23,184c0,50.91,41.27,92.17,92.17,92.17c50.91,0,92.18-41.27,92.18-92.17s-41.27-92.17-92.18-92.17
		C309.5,91.83,268.23,133.09,268.23,184"/>
	<path class="st1" d="M392,316.04c59.58-14.45,104-68.09,104-132.04c0-72.29-56.74-131.42-128-135.59V0H84.69L0,84.69V496h360
		c22.06,0,40-17.94,40-40v-80c0-8.52-4.5-15.98-11.21-20.23c1.98-3.5,3.21-7.47,3.21-11.77V316.04z M368,352h-16c-4.42,0-8-3.58-8-8
		v-25.02c5.26,0.62,10.58,1.02,16,1.02c5.42,0,10.74-0.41,16-1.02V344C376,348.42,372.42,352,368,352 M480,184
		c0,66.17-53.83,120-120,120c-63.47,0-115.45-49.56-119.59-112h16c4.11,53.61,48.95,96,103.59,96c57.34,0,104-46.66,104-104
		S417.34,80,360,80c-54.64,0-99.48,42.39-103.59,96h-16C244.55,113.56,296.53,64,360,64C426.17,64,480,117.83,480,184 M304.64,192
		c3.9,27.1,27.21,48,55.36,48c30.87,0,56-25.12,56-56s-25.13-56-56-56c-28.15,0-51.46,20.9-55.36,48h-32.23
		c4.06-44.78,41.77-80,87.59-80c48.52,0,88,39.48,88,88s-39.48,88-88,88c-45.82,0-83.54-35.22-87.59-80H304.64z M320.81,176
		c3.72-18.23,19.87-32,39.19-32c22.06,0,40,17.94,40,40s-17.94,40-40,40c-19.31,0-35.47-13.77-39.19-32H368v-16H320.81z M80,27.31
		V80H27.31L80,27.31z M16,96h80V16h256v32.41C283.4,52.42,228.42,107.4,224.41,176h-59.46h-8l-24-48H32v8
		c0,20.38,10.98,38.2,27.3,48C42.98,193.8,32,211.62,32,232v8h100.94l24-48h8h59.46c3.54,60.38,46.54,110.2,103.6,124.04V344
		c0,4.3,1.22,8.27,3.21,11.77C324.5,360.02,320,367.48,320,376v80c0,9.04,3.13,17.3,8.21,24H16V96z M120,176H88
		c-19.32,0-35.48-13.77-39.19-32h74.25l16,32H120z M139.06,192l-16,32H48.81c3.72-18.23,19.87-32,39.19-32h32H139.06z M384,456
		c0,13.23-10.77,24-24,24c-13.23,0-24-10.77-24-24v-80c0-4.42,3.58-8,8-8h8h16h8c4.42,0,8,3.58,8,8V456z"/>
	<path class="st1" d="M104,320c-39.7,0-72,32.3-72,72s32.3,72,72,72s72-32.3,72-72S143.7,320,104,320 M104,448
		c-30.87,0-56-25.13-56-56s25.13-56,56-56s56,25.13,56,56S134.87,448,104,448"/>
	<polygon class="st1" points="88,404.69 77.66,394.34 66.34,405.66 88,427.31 141.66,373.66 130.34,362.34 	"/>
	<rect x="32" y="256" class="st1" width="16" height="16"/>
	<rect x="64" y="256" class="st1" width="160" height="16"/>
</g>
</svg>
