<?xml version="1.0" encoding="utf-8"?>
<!-- Generator: Adobe Illustrator 23.0.5, SVG Export Plug-In . SVG Version: 6.00 Build 0)  -->
<svg version="1.1" id="Слой_1" xmlns="http://www.w3.org/2000/svg" xmlns:xlink="http://www.w3.org/1999/xlink" x="0px" y="0px"
	 viewBox="0 0 496 496" style="enable-background:new 0 0 496 496;" xml:space="preserve">
<style type="text/css">
	.st0{clip-path:url(#SVGID_2_);fill:#20BCEE;}
	.st1{clip-path:url(#SVGID_2_);fill:#0E243F;}
</style>
<g>
	<defs>
		<rect id="SVGID_1_" width="496" height="496"/>
	</defs>
	<clipPath id="SVGID_2_">
		<use xlink:href="#SVGID_1_"  style="overflow:visible;"/>
	</clipPath>
	<path class="st0" d="M327.5,84.75c0,43.49-35.26,78.75-78.75,78.75S170,128.24,170,84.75S205.26,6,248.75,6
		S327.5,41.26,327.5,84.75"/>
	<path class="st1" d="M344,256c-3.16,0-6.16,0.65-8.93,1.76C332.31,247.56,323.06,240,312,240c-6.17,0-11.74,2.41-16,6.24
		c-4.26-3.84-9.83-6.24-16-6.24c-2.82,0-5.49,0.58-8,1.47v-68.84c33.26-9.42,57.88-37.79,62.96-71.67l33.82,18.61
		C348.95,134.14,336,157.56,336,184c0,44.11,35.89,80,80,80s80-35.89,80-80s-35.89-80-80-80c-10.97,0-21.43,2.22-30.96,6.24
		l-49.29-27.11C333.21,36.88,294.88,0,248,0s-85.21,36.88-87.75,83.14l-49.29,27.1C101.43,106.22,90.98,104,80,104
		c-44.11,0-80,35.89-80,80s35.89,80,80,80s80-35.89,80-80c0-26.45-12.95-49.86-32.79-64.44l33.83-18.61
		c5.08,33.91,29.68,62.26,62.97,71.69V320.1c0,3.64-0.84,7.29-2.45,10.55l-6.71-33.55c-4.81-24.02-26.07-41.45-50.56-41.45
		c-11.18,0-20.28,9.1-20.28,20.28c0,4.02,1.18,7.9,3.41,11.25l8.23,12.35c3.05,4.57,5.02,9.86,5.7,15.31l5.54,44.26
		c0.91,7.38,3.25,14.4,6.7,20.38L200,433.84V448h-16v48h176v-48h-16v-13.34l12.8-17.06c7.22-9.62,11.2-21.55,11.2-33.6V280
		C368,266.77,357.23,256,344,256 M416,248c-14.39,0-27.64-4.83-38.34-12.87c9-11.94,23.16-19.13,38.34-19.13
		c15.18,0,29.34,7.19,38.34,19.13C443.64,243.17,430.39,248,416,248 M392,176c0-13.23,10.77-24,24-24c13.23,0,24,10.77,24,24
		s-10.77,24-24,24C402.77,200,392,189.23,392,176 M416,120c35.29,0,64,28.71,64,64c0,15.14-5.31,29.06-14.14,40.03
		c-6.34-7.89-14.37-14.1-23.45-18.22C450.68,198.47,456,187.9,456,176c0-22.06-17.94-40-40-40s-40,17.94-40,40
		c0,11.9,5.32,22.47,13.59,29.81c-9.08,4.13-17.11,10.34-23.45,18.22C357.31,213.06,352,199.14,352,184
		C352,148.71,380.71,120,416,120 M80,248c-14.39,0-27.64-4.83-38.34-12.87C50.66,223.19,64.82,216,80,216s29.34,7.19,38.34,19.13
		C107.64,243.17,94.39,248,80,248 M56,176c0-13.23,10.77-24,24-24s24,10.77,24,24s-10.77,24-24,24S56,189.23,56,176 M144,184
		c0,15.14-5.31,29.06-14.14,40.03c-6.34-7.89-14.37-14.1-23.45-18.22C114.68,198.47,120,187.9,120,176c0-22.06-17.94-40-40-40
		s-40,17.94-40,40c0,11.9,5.32,22.47,13.59,29.81c-9.08,4.13-17.11,10.34-23.45,18.22C21.31,213.06,16,199.14,16,184
		c0-35.29,28.71-64,64-64S144,148.71,144,184 M176,88c0-39.7,32.3-72,72-72s72,32.3,72,72c0,16.14-5.48,31.26-14.74,43.46
		c-6.58-13.27-17.49-23.72-30.75-29.74C282.72,94.39,288,83.85,288,72c0-22.06-17.94-40-40-40s-40,17.94-40,40
		c0,11.85,5.28,22.39,13.49,29.72c-13.27,6.02-24.18,16.47-30.76,29.74C181.47,119.27,176,104.15,176,88 M272,72
		c0,13.23-10.77,24-24,24c-13.23,0-24-10.77-24-24s10.77-24,24-24C261.23,48,272,58.77,272,72 M202.9,144.02
		C209.6,124.99,227.42,112,248,112c20.56,0,38.38,12.99,45.1,32.01c-7.01,5.67-15.09,10.1-23.98,12.82
		C265.08,149.24,257.18,144,248,144c-9.18,0-17.08,5.24-21.11,12.83C217.98,154.1,209.9,149.69,202.9,144.02 M344,480H200v-16h144
		V480z M352,384c0,8.6-2.84,17.13-8,24l-16,21.34V448H216v-17.84l-28.29-58.14c-2.64-4.6-4.3-9.6-4.96-14.87l-5.54-44.27
		c-0.98-7.9-3.83-15.58-8.26-22.2l-8.24-12.36c-0.47-0.7-0.72-1.53-0.72-2.38c0-2.36,1.92-4.27,4.28-4.27
		c16.89,0,31.55,12.02,34.87,28.58l10.29,51.42h19.5l6.83-13.67c2.76-5.52,4.22-11.71,4.22-17.88V168c0-4.42,3.58-8,8-8s8,3.58,8,8
		v96v32h16v-32c0-4.42,3.58-8,8-8c4.42,0,8,3.58,8,8v32h16v-32c0-4.42,3.58-8,8-8c4.42,0,8,3.58,8,8v16v16h16v-16c0-4.42,3.58-8,8-8
		c4.42,0,8,3.58,8,8V384z"/>
</g>
</svg>
