<?xml version="1.0" encoding="utf-8"?>
<!-- Generator: Adobe Illustrator 23.0.5, SVG Export Plug-In . SVG Version: 6.00 Build 0)  -->
<svg version="1.1" id="Слой_1" xmlns="http://www.w3.org/2000/svg" xmlns:xlink="http://www.w3.org/1999/xlink" x="0px" y="0px"
	 viewBox="0 0 448 480" style="enable-background:new 0 0 448 480;" xml:space="preserve">
<style type="text/css">
	.st0{clip-path:url(#SVGID_2_);fill:#20BCEE;}
	.st1{clip-path:url(#SVGID_2_);fill:#0E243F;}
</style>
<g>
	<defs>
		<rect id="SVGID_1_" width="448" height="480"/>
	</defs>
	<clipPath id="SVGID_2_">
		<use xlink:href="#SVGID_1_"  style="overflow:visible;"/>
	</clipPath>
	<path class="st0" d="M298.03,384.33l67.07-0.95l23.49,15.16c0,0,7.77,32.06,7.96,33.46c0.19,1.4-33.92,10.68-33.92,10.68
		l-78.63-1.52l-2.08-17.24l3.03-23.12L298.03,384.33z"/>
	<polygon class="st0" points="83,120 79.9,62 116,21 166,6 220,6 304,12 328,24 352,51 362,84 362,123 314,128 304,63.36 220,55 
		137.55,61.46 126.53,108 123,120 88,120 	"/>
	<path class="st1" d="M104,320c-22.09,0-40,17.91-40,40c0,22.09,17.91,40,40,40s40-17.91,40-40C143.97,337.92,126.08,320.03,104,320
		 M104,384c-13.26,0.05-24.04-10.65-24.1-23.9c-0.05-13.26,10.65-24.04,23.9-24.1c10.21-0.04,19.32,6.38,22.73,16H104v16h22.53
		C123.15,377.55,114.13,383.96,104,384"/>
	<path class="st1" d="M424,416h-24v-8c0-1.58-0.47-3.12-1.34-4.44l-16-24c-1.48-2.22-3.98-3.56-6.66-3.56h-8V88
		c-0.06-48.58-39.42-87.94-88-88H160c-48.58,0.06-87.94,39.42-88,88v30.11L59.06,144H40c-22.08,0.03-39.97,17.92-40,40v272
		c0,13.26,10.74,24,24,24s24-10.74,24-24v-8h112v8c0,13.26,10.74,24,24,24s24-10.74,24-24V184c-0.03-22.08-17.92-39.97-40-40h-19.06
		L136,118.11V88c0-13.26,10.74-24,24-24h120c13.26,0,24,10.74,24,24v64h-8c-3.44,0-6.5,2.21-7.58,5.47l-16,48
		c-1.4,4.19,0.87,8.72,5.06,10.12c0.81,0.27,1.66,0.41,2.52,0.41h24v160h-8c-2.67,0-5.17,1.34-6.66,3.56l-16,24
		c-0.87,1.32-1.34,2.86-1.34,4.44v8h-24c-13.26,0-24,10.74-24,24v32c0,4.42,3.58,8,8,8h208c4.42,0,8-3.58,8-8v-32
		C448,426.74,437.25,416,424,416 M352,232h-32v-96h32V232z M320,248h32v80h-32V248z M32,432H16v-64h8c4.42,0,8,3.58,8,8V432z
		 M32,456c0,4.42-3.58,8-8,8s-8-3.58-8-8v-8h16V456z M192,432h-16v-56c0-4.42,3.58-8,8-8h8V432z M192,456c0,4.42-3.58,8-8,8
		s-8-3.58-8-8v-8h16V456z M192,184v168h-8c-13.26,0-24,10.74-24,24v56h-16v-16h-16v16h-16v-16H96v16H80v-16H64v16H48v-56
		c0-13.26-10.74-24-24-24h-8V184c0-13.26,10.74-24,24-24h128C181.26,160,192,170.74,192,184 M76.94,144l8-16h38.11l8,16H76.94z
		 M280,48H160c-22.08,0.03-39.97,17.92-40,40v24H88V88c0.04-39.75,32.25-71.96,72-72h120c39.75,0.04,71.96,32.25,72,72v32h-32V88
		C319.97,65.92,302.08,48.03,280,48 M291.1,200l10.66-32H304v32H291.1z M320,344h32v32h-32V344z M288,410.4l12.28-18.4h71.44
		L384,410.4V432h-24v-16h-16v16h-16v-16h-16v16h-24V410.4z M432,464H240v-24c0-4.42,3.58-8,8-8h24v8c0,4.42,3.58,8,8,8h112
		c4.42,0,8-3.58,8-8v-8h24c4.42,0,8,3.58,8,8V464z"/>
</g>
</svg>
