<?xml version="1.0" encoding="utf-8"?>
<!-- Generator: Adobe Illustrator 23.0.5, SVG Export Plug-In . SVG Version: 6.00 Build 0)  -->
<svg version="1.1" id="Layer_1" xmlns="http://www.w3.org/2000/svg" xmlns:xlink="http://www.w3.org/1999/xlink" x="0px" y="0px"
	 viewBox="0 0 512 512" style="enable-background:new 0 0 512 512;" xml:space="preserve">
<style type="text/css">
	.st0{fill:#20BCEE;}
	.st1{fill:#0E243F;}
</style>
<polygon class="st0" points="252.3,439.3 256,316.5 279.1,287.5 304.3,281.9 335.5,297.4 348.3,316.5 348.3,463.9 335,478.4 
	317.5,472.3 314.3,494.4 300.3,502.4 285.3,491.2 281.7,460 256,462.8 "/>
<g>
	<g>
		<path class="st1" d="M256,0C131.6,0,30.4,101.2,30.4,225.6c0,59.5,23,115.6,64.6,158.1c39.6,40.4,91.9,64,148.1,67.2
			c1.4,12.7,12.2,22.6,25.2,22.6c2.7,0,5.3-0.4,7.8-1.2v14.3c0,14,11.4,25.4,25.4,25.4c13.9,0,25.2-11.2,25.4-25
			c2.4,0.8,5.1,1.2,7.8,1.2c14,0,25.4-11.4,25.4-25.4V361.4h26.2c4.9,0,8.8-3.9,8.8-8.8v-25.8c0-51.6-42-93.6-93.6-93.6
			s-93.6,42-93.6,93.6v25.8c0,4.9,3.9,8.8,8.8,8.8h26.2v71.8c-51.3-3.2-99.1-24.9-135.3-61.9C69.2,332.2,48,280.5,48,225.6
			c0-114.7,93.3-208,208-208s208,93.3,208,208c0,50.3-18.2,98.8-51.2,136.6c-3.2,3.7-2.8,9.2,0.9,12.4c3.7,3.2,9.2,2.8,12.4-0.9
			c35.8-41,55.5-93.7,55.5-148.2C481.6,101.2,380.4,0,256,0z M342.3,462.8c0,4.3-3.5,7.8-7.8,7.8s-7.8-3.5-7.8-7.8
			c0-4.9-3.9-8.8-8.8-8.8s-8.8,3.9-8.8,8.8v23.8c0,4.3-3.5,7.8-7.8,7.8s-7.8-3.5-7.8-7.8v-38.5c0-4.9-3.9-8.8-8.8-8.8
			s-8.8,3.9-8.8,8.8c0,4.3-3.5,7.8-7.8,7.8s-7.8-3.5-7.8-7.8V330.7c0-22.6,18.3-40.9,40.9-40.9s40.9,18.3,40.9,40.9L342.3,462.8
			L342.3,462.8z M242.9,330.7v13.1h-17.4v-17c0-41.9,34.1-75.9,75.9-75.9s75.9,34.1,75.9,75.9v17H360v-13.1
			c0-32.3-26.3-58.5-58.5-58.5S242.9,298.4,242.9,330.7z"/>
	</g>
</g>
<g>
	<g>
		<path class="st1" d="M278.1,158.2c-3.9-2.9-9.4-2.1-12.3,1.8c-7.3,9.8-20.4,15.9-34.1,15.9c-14.1,0-27-6-33.7-15.6
			c-2.8-4-8.3-5-12.3-2.2c-4,2.8-5,8.3-2.2,12.3c9.9,14.3,28.4,23.2,48.2,23.2c19.3,0,37.8-8.8,48.3-23
			C282.9,166.7,282,161.1,278.1,158.2z"/>
	</g>
</g>
<g>
	<g>
		<path class="st1" d="M413.8,158.2c-3.9-2.9-9.4-2.1-12.3,1.8c-7.3,9.8-20.4,15.9-34.1,15.9c-14.1,0-27-6-33.7-15.6
			c-2.8-4-8.3-5-12.3-2.2c-4,2.8-5,8.3-2.2,12.3c9.9,14.3,28.4,23.2,48.2,23.2c19.3,0,37.8-8.8,48.3-23
			C418.5,166.7,417.7,161.1,413.8,158.2z"/>
	</g>
</g>
<g>
	<g>
		<circle class="st1" cx="395" cy="392.1" r="8.8"/>
	</g>
</g>
</svg>
