<?xml version="1.0" encoding="utf-8"?>
<!-- Generator: Adobe Illustrator 23.0.5, SVG Export Plug-In . SVG Version: 6.00 Build 0)  -->
<svg version="1.1" id="Слой_1" xmlns="http://www.w3.org/2000/svg" xmlns:xlink="http://www.w3.org/1999/xlink" x="0px" y="0px"
	 viewBox="0 0 480 480" style="enable-background:new 0 0 480 480;" xml:space="preserve">
<style type="text/css">
	.st0{fill:#20BCEE;}
	.st1{fill:#0E243F;}
</style>
<polygon class="st0" points="406.9,293.8 372.8,312.6 336.3,318.4 296.1,301.4 269.6,271.8 269.6,207.3 419.1,207.3 419.1,252.8 "/>
<path class="st1" d="M180.7,147.5c-8.4-19.2-12.8-40-12.7-60.9V48c4.4,0,8-3.6,8-8V8c0-4.4-3.6-8-8-8h-64c-4.4,0-8,3.6-8,8v32
	c0,4.4,3.6,8,8,8v38.5c0,21-4.3,41.7-12.7,60.9l-22.5,51.3C55,230.1,48,264,48,298.2V472c0,4.4,3.6,8,8,8h160c4.4,0,8-3.6,8-8V298.2
	c0-34.2-7-68.1-20.8-99.4L180.7,147.5z M112,16h48v16h-48V16z M208,464H64V298.2c0-32,6.6-63.7,19.5-93l22.5-51.3
	c9.3-21.2,14.1-44.2,14.1-67.3V48h32v38.5c0,23.2,4.8,46.1,14.1,67.3l22.5,51.3c12.9,29.3,19.5,61,19.5,93V464z"/>
<path class="st1" d="M152.6,202.8l6.7,15.2c3.4,7.9,6.4,16,8.8,24.2c1,3.4,4.1,5.8,7.7,5.8c0.8,0,1.5-0.1,2.3-0.3
	c4.2-1.2,6.7-5.7,5.4-9.9c-2.6-8.9-5.8-17.6-9.5-26.1l-6.7-15.2c-1.1-2.7-3.6-4.6-6.4-5c-2.9-0.4-5.8,0.9-7.5,3.3
	C151.6,197.1,151.3,200.2,152.6,202.8L152.6,202.8z"/>
<path class="st1" d="M142.3,179.2c1.3,2.9,4.2,4.8,7.3,4.8c1.1,0,2.2-0.2,3.2-0.7c4-1.8,5.9-6.5,4.1-10.5l-5.5-12.5
	c-1.9-3.9-6.5-5.6-10.4-3.9c-4,1.7-5.8,6.3-4.2,10.3L142.3,179.2z"/>
<path class="st1" d="M88,280c-4.4,0-8,3.6-8,8v136c0,4.4,3.6,8,8,8h96c4.4,0,8-3.6,8-8V288c0-4.4-3.6-8-8-8H88z M176,416H96V296h80
	V416z"/>
<rect x="89.8" y="290.9" class="st0" width="90.2" height="129.6"/>
<path class="st1" d="M406.4,460.8c-15.8-11.8-34.7-18.9-54.4-20.5V327.6c45.3-4.2,79.9-42.1,80-87.6c0-0.4,0-0.8-0.1-1.1l-4.2-29.5
	v-0.1l-11.8-82.5c-0.6-3.9-3.9-6.9-7.9-6.9H280c-4,0-7.4,2.9-7.9,6.9l-16,112c-0.1,0.4-0.1,0.8-0.1,1.1c0.1,45.5,34.7,83.4,80,87.6
	v112.7c-19.7,1.6-38.6,8.7-54.4,20.5l-6.4,4.8c-2.7,2.1-3.9,5.7-2.8,8.9s4.1,5.5,7.6,5.5h128c3.4,0,6.5-2.2,7.6-5.5
	c1.1-3.3,0-6.9-2.8-8.9L406.4,460.8z M286.9,136h114.1l9.6,67.2l-15.4,1.7c-17.5,2-35.2,0.5-52.1-4.3l-1-0.3
	c-19.7-5.6-40.2-7.1-60.5-4.6l-3.3,0.4L286.9,136z M272,240.6l4-28l7.6-0.9c18.1-2.3,36.5-1,54,4l0.9,0.3c19,5.4,38.8,7.1,58.4,4.9
	l15.9-1.8l3.1,21.5c0,39.8-32.2,72-72,72S272,280.3,272,240.6z M307.4,464c23.3-10.4,49.9-10.4,73.2,0H307.4z"/>
</svg>
